<svg width="281" height="300" viewBox="0 0 281 300" fill="none" xmlns="http://www.w3.org/2000/svg">
<path d="M197.295 40.5834H144.538V118.628H197.295V40.5834Z" fill="#3EC1F3"/>
<path d="M129.082 40.5834H144.538V118.628H109.886V59.7787C109.886 54.6878 111.909 49.8054 115.509 46.2056C119.108 42.6058 123.991 40.5834 129.082 40.5834Z" fill="#3EC1F3"/>
<path d="M126.276 103.331C130.505 103.331 133.934 99.584 133.934 94.9614C133.934 90.3388 130.505 86.5914 126.276 86.5914C122.046 86.5914 118.617 90.3388 118.617 94.9614C118.617 99.584 122.046 103.331 126.276 103.331Z" fill="#F4E6D8"/>
<path d="M137.047 95.1419H115.505C115.504 97.2813 116.141 99.3724 117.334 101.148C118.527 102.924 120.222 104.304 122.203 105.112V107.837H130.348V105.112C132.329 104.304 134.025 102.924 135.218 101.148C136.411 99.3724 137.047 97.2813 137.047 95.1419Z" fill="#4756DF"/>
<path d="M109.488 74.2338L143.881 60.2724" stroke="#4756DF" stroke-width="4" stroke-miterlimit="10" stroke-linecap="round"/>
<path d="M143.915 40.5834V118.628" stroke="#4756DF" stroke-width="4" stroke-miterlimit="10"/>
<path d="M337.774 245.37V215.404L319.669 196.985H268.784L250.679 215.404V243.187H187.308V231.633C167.016 229.447 173.258 214.464 162.02 214.464H142.042C140.586 214.459 139.159 214.872 137.932 215.656L109.726 198.225H80.6969L44.3292 220.699H44.4075V248.997L19.9818 264.092V290.002H355.88V263.782L337.774 245.37Z" fill="#F5EBDD"/>
<path d="M91.2599 158.908C100.795 155.956 113.053 151.713 150.358 182.22C187.662 212.728 201.776 192.776 197.959 188.166C194.894 184.454 177.78 194.469 190.519 207.97C202.624 220.808 238.103 208.529 247.832 200.67C261.678 189.487 281.499 180.691 298.972 180.058" stroke="#FFB7D5" stroke-width="4" stroke-linecap="round" stroke-linejoin="round" stroke-dasharray="12 12"/>
<path d="M117.068 220.706L80.6969 198.232" stroke="#FFB7D5" stroke-width="4" stroke-linecap="round" stroke-linejoin="round"/>
<path d="M44.748 220.706H117.146V289.669" stroke="#FFB7D5" stroke-width="4" stroke-linecap="round" stroke-linejoin="round"/>
<path d="M43.4711 289.798L43.8116 249.337" stroke="#FFB7D5" stroke-width="4" stroke-linecap="round" stroke-linejoin="round"/>
<path d="M20.3224 264.099H43.3927" stroke="#FFB7D5" stroke-width="4" stroke-linecap="round" stroke-linejoin="round"/>
<path d="M43.8627 259.26H116.598" stroke="#FFB7D5" stroke-width="4" stroke-linecap="round" stroke-linejoin="round"/>
<path d="M249.896 269.564H301.406" stroke="#FFB7D5" stroke-width="4" stroke-linecap="round" stroke-linejoin="round"/>
<path d="M117.068 220.706H134.04" stroke="#FFB7D5" stroke-width="4" stroke-linecap="round" stroke-linejoin="round"/>
<path d="M251.019 215.401H301.563V289.669" stroke="#FFB7D5" stroke-width="4" stroke-linecap="round" stroke-linejoin="round"/>
<path d="M167.639 232.257H186.967" stroke="#FFB7D5" stroke-width="4" stroke-linecap="round" stroke-linejoin="round"/>
<path d="M142.423 215.087C131.186 215.087 137.428 230.07 117.136 232.257H167.717C147.415 230.074 153.661 215.087 142.423 215.087Z" stroke="#FFB7D5" stroke-width="4" stroke-linecap="round" stroke-linejoin="round"/>
<path d="M117.136 289.328V232.26H167.707V289.669" stroke="#FFB7D5" stroke-width="4" stroke-linecap="round" stroke-linejoin="round"/>
<path d="M167.639 289.328V248.802H249.899V289.669" stroke="#FFB7D5" stroke-width="4" stroke-linecap="round" stroke-linejoin="round"/>
<path d="M167.785 248.04L186.787 242.557" stroke="#FFB7D5" stroke-width="4" stroke-linecap="round" stroke-linejoin="round"/>
<path d="M249.899 243.524V248.802H167.639" stroke="#FFB7D5" stroke-width="4" stroke-linecap="round" stroke-linejoin="round"/>
<path d="M183.981 258.17H184.062C185.54 258.17 186.957 258.757 188.002 259.802C189.046 260.847 189.633 262.264 189.633 263.741V290.012H178.396V263.741C178.396 263.008 178.541 262.283 178.821 261.606C179.102 260.929 179.514 260.315 180.033 259.797C180.551 259.28 181.167 258.87 181.845 258.59C182.522 258.311 183.248 258.168 183.981 258.17Z" fill="#FFB7D5"/>
<path d="M234.242 258.17H234.337C235.815 258.17 237.232 258.757 238.276 259.802C239.321 260.847 239.908 262.264 239.908 263.741V290.012H228.671V263.741C228.671 262.264 229.258 260.847 230.303 259.802C231.347 258.757 232.764 258.17 234.242 258.17Z" fill="#FFB7D5"/>
<path d="M209.111 258.17H209.207C210.684 258.17 212.101 258.757 213.146 259.802C214.191 260.847 214.778 262.264 214.778 263.741V290.012H203.54V263.741C203.54 262.264 204.127 260.847 205.172 259.802C206.217 258.757 207.634 258.17 209.111 258.17Z" fill="#FFB7D5"/>
<path d="M59.3462 270.967H59.4313C60.9088 270.967 62.3258 271.554 63.3706 272.599C64.4153 273.644 65.0023 275.061 65.0023 276.538V290.009H53.765V276.538C53.765 275.806 53.9091 275.082 54.1891 274.406C54.4691 273.73 54.8794 273.116 55.3967 272.599C55.914 272.081 56.5282 271.671 57.2041 271.391C57.88 271.111 58.6044 270.967 59.336 270.967H59.3462Z" fill="#FFB7D5"/>
<path d="M102.112 270.967H102.208C102.94 270.966 103.665 271.11 104.342 271.389C105.018 271.669 105.633 272.079 106.151 272.596C106.669 273.114 107.08 273.728 107.361 274.405C107.641 275.081 107.785 275.806 107.785 276.538V290.009H96.5482V276.538C96.5482 275.062 97.1342 273.646 98.1775 272.601C99.2208 271.557 100.636 270.969 102.112 270.967Z" fill="#FFB7D5"/>
<path d="M80.7276 270.967H80.8229C82.3004 270.967 83.7174 271.554 84.7622 272.599C85.8069 273.644 86.3939 275.061 86.3939 276.538V290.009H75.1566V276.538C75.1566 275.061 75.7436 273.644 76.7883 272.599C77.8331 271.554 79.2501 270.967 80.7276 270.967Z" fill="#FFB7D5"/>
<path d="M65.0091 230.697H53.7718V249.739H65.0091V230.697Z" fill="#FFB7D5"/>
<path d="M107.779 230.697H96.5414V249.739H107.779V230.697Z" fill="#FFB7D5"/>
<path d="M86.3939 230.697H75.1566V249.739H86.3939V230.697Z" fill="#FFB7D5"/>
<path d="M138.204 241.934H128.867V255.981H138.204V241.934Z" fill="#FFB7D5"/>
<path d="M155.973 241.934H146.636V255.981H155.973V241.934Z" fill="#FFB7D5"/>
<path d="M138.204 266.598H128.867V280.645H138.204V266.598Z" fill="#FFB7D5"/>
<path d="M155.973 266.598H146.636V280.645H155.973V266.598Z" fill="#FFB7D5"/>
<path d="M271.505 223.205H262.168V237.252H271.505V223.205Z" fill="#FFB7D5"/>
<path d="M289.273 223.205H279.936V237.252H289.273V223.205Z" fill="#FFB7D5"/>
<path d="M271.505 247.866H262.168V261.913H271.505V247.866Z" fill="#FFB7D5"/>
<path d="M289.273 247.866H279.936V261.913H289.273V247.866Z" fill="#FFB7D5"/>
<path d="M93.0306 141.259C93.0306 148.284 85.5391 156.398 82.5698 156.398C79.6004 156.398 72.1124 148.284 72.1124 141.259C72.1618 138.518 73.2855 135.905 75.2416 133.984C77.1977 132.063 79.8298 130.987 82.5715 130.987C85.3132 130.987 87.9453 132.063 89.9014 133.984C91.8575 135.905 92.9812 138.518 93.0306 141.259Z" fill="#FFB7D5"/>
<path d="M82.5698 144.538C84.3809 144.538 85.849 143.07 85.849 141.259C85.849 139.448 84.3809 137.98 82.5698 137.98C80.7587 137.98 79.2906 139.448 79.2906 141.259C79.2906 143.07 80.7587 144.538 82.5698 144.538Z" fill="white"/>
<path d="M10.2395 290.009H29.9081C29.9081 284.581 25.5051 279.085 20.0738 279.085C14.6425 279.085 10.2395 284.581 10.2395 290.009Z" fill="#FFB7D5"/>
<path d="M0 290.009H14.6118C14.6118 285.977 11.3394 281.894 7.3076 281.894C3.27582 281.894 0 285.977 0 290.009Z" fill="#FFB7D5"/>
<path d="M178.202 96.7083C153.967 111.524 145.539 152.796 140.404 167.854C134.85 184.137 122.619 183.766 108.426 188.506C94.2327 193.246 94.7605 203.581 94.7605 203.581C91.4432 205.841 88.2733 208.31 85.2701 210.974L103.24 233.939C107.479 231.014 113.772 227.346 122.404 222.133C140.234 211.362 156.194 201.249 166.495 190.011C176.796 178.774 203.867 129.501 203.867 129.501L178.202 96.7083Z" fill="#4856DF"/>
<path d="M103.24 233.939L85.2668 210.977C77.2304 218.128 72.4154 224.939 69.9943 228.902L95.3326 261.272C98.9013 254.802 96.0647 245.697 96.3541 241.723C96.5482 239.329 98.7208 237.058 103.24 233.939Z" fill="#30242A"/>
<path d="M68.0261 232.471L92.9387 264.3C93.8977 263.433 94.7036 262.411 95.3224 261.276L69.9875 228.906C69.2699 230.058 68.6151 231.248 68.0261 232.471Z" fill="#3EC1F3"/>
<path d="M94.025 235.301L98.8502 237.988" stroke="white" stroke-width="4" stroke-linecap="round" stroke-linejoin="round"/>
<path d="M91.8763 240.157L96.7117 241.253" stroke="white" stroke-width="4" stroke-linecap="round" stroke-linejoin="round"/>
<path d="M100.505 212.731L91.8967 219.46" stroke="#3EC1F3" stroke-width="4" stroke-miterlimit="10" stroke-linecap="round"/>
<path d="M96.1464 207.157L87.538 213.885" stroke="#3EC1F3" stroke-width="4" stroke-miterlimit="10" stroke-linecap="round"/>
<path d="M104.864 218.305L96.2554 225.034" stroke="#3EC1F3" stroke-width="4" stroke-miterlimit="10" stroke-linecap="round"/>
<path d="M109.222 223.88L100.614 230.608" stroke="#3EC1F3" stroke-width="4" stroke-miterlimit="10" stroke-linecap="round"/>
<path d="M93.9807 203.877L112.869 228.041" stroke="#3EC1F3" stroke-width="4" stroke-miterlimit="10" stroke-linecap="round"/>
<path d="M185.704 160.89C181.6 154.42 177.586 147.269 174.535 139.89" stroke="#30242A" stroke-width="4" stroke-linecap="round" stroke-linejoin="round"/>
<path d="M192.456 5.93189C194.094 5.93189 195.422 4.604 195.422 2.96595C195.422 1.3279 194.094 0 192.456 0C190.818 0 189.49 1.3279 189.49 2.96595C189.49 4.604 190.818 5.93189 192.456 5.93189Z" fill="#4756DF"/>
<path d="M201.872 46.202L201.667 42.7559C205.634 43.2531 208.573 42.664 210.674 41.588L201.667 34.3382C201.667 34.3382 204.787 33.0919 202.914 26.5335L212.939 22.8899C212.411 21.5278 212.06 18.2452 211.049 14.7174L205.079 17.3155C203.686 19.9899 201.687 22.302 199.243 24.0681C198.233 23.0237 197.105 22.1004 195.882 21.3167C195.718 21.2111 195.541 21.1124 195.378 21.0136H195.361C195.194 20.9183 195.02 20.8263 194.854 20.7378H194.826C194.656 20.6527 194.486 20.5675 194.312 20.4926L194.278 20.4313C194.111 20.353 193.938 20.2849 193.764 20.2168H193.716C193.543 20.1555 193.376 20.0976 193.199 20.0431H193.141C192.97 19.992 192.8 19.9478 192.623 19.9103H192.562C192.388 19.8729 192.221 19.8456 192.044 19.8252H191.976C191.806 19.8082 191.636 19.798 191.462 19.7945C189.974 19.7741 188.499 20.3802 187.27 22.0999C186.536 23.0969 186.138 24.3012 186.133 25.5392C186.157 29.1998 189.562 32.6901 192.603 33.7117C190.199 38.7821 182.431 41.9455 179.452 42.9977C179.547 44.1589 179.639 45.2384 179.721 46.202H201.872Z" fill="#EAA58B"/>
<path d="M262.464 67.1169C261.054 67.1169 260.373 65.9728 260.942 64.563L265.709 52.7911L265.672 52.7571L265.754 52.6788C267.071 51.4406 268.298 50.1091 269.424 48.6947C271.577 45.9535 272.224 43.9614 271.468 43.1476C271.251 42.929 270.964 42.7939 270.657 42.7662C270.345 42.7285 270.029 42.7469 269.724 42.8207C267.293 43.3519 263.128 46.6652 258.487 52.1305C252.872 58.7333 241.951 71.7991 241.951 71.7991C240.814 70.9308 239.162 69.4597 237.184 67.6856L221.472 87.8854C224.839 90.506 228.433 92.8205 232.212 94.8014C232.925 92.5945 234.286 90.6534 236.117 89.2306C237.949 87.8078 240.166 86.9693 242.481 86.8241C244.795 86.679 247.1 87.234 249.095 88.4169C251.09 89.5998 252.682 91.3558 253.665 93.4563C263.132 86.3837 270.609 73.7639 274.113 67.1169H262.464Z" fill="#EAA58B"/>
<path d="M210.409 50.5709H205.607C214.764 56.0874 210.715 66.4937 210.715 66.4937C210.715 66.4937 223.222 75.2349 214.778 85.849C215.397 85.197 215.922 84.4611 216.337 83.6629C216.337 83.6629 218.353 85.5153 221.445 87.8853L237.157 67.6856C229.859 61.1748 218.012 50.5709 210.409 50.5709Z" fill="#FFB7D5"/>
<path d="M162.334 67.4234C162.334 67.4234 153.14 75.0885 159.354 85.3519L162.627 66.9637L162.334 67.4234Z" fill="#FF7235"/>
<path d="M179.707 46.202V46.3144L180.102 46.202H179.707Z" fill="#FF7235"/>
<path d="M192.575 33.7117C189.548 32.6901 186.143 29.21 186.106 25.5392L178.304 28.9444C178.607 33.2418 179.047 38.6595 179.411 42.9977C182.418 41.9455 190.192 38.7821 192.575 33.7117Z" fill="#30242A"/>
<path d="M201.667 34.3383L210.674 41.588C212.458 40.7282 213.872 39.2529 214.655 37.4336C215.983 34.1101 215.125 31.2497 214.09 27.538C214.09 27.538 216.729 25.7707 216.317 24.1328C215.976 22.8014 212.969 22.9852 212.969 22.9852L212.939 22.9001L202.914 26.5437C204.787 33.0919 201.667 34.3383 201.667 34.3383Z" fill="#30242A"/>
<path d="M199.243 24.0613C201.687 22.2952 203.686 19.9831 205.079 17.3087L195.885 21.3099C197.107 22.0938 198.234 23.0171 199.243 24.0613Z" fill="#30242A"/>
<path d="M194.312 20.462L194.278 20.4313L194.312 20.462Z" fill="#4756DF"/>
<path d="M187.263 22.0658C188.493 20.3462 189.967 19.7401 191.455 19.7605H191.421C190.566 10.311 192.674 5.17253 194.237 2.73439C192.738 2.95572 191.259 3.29039 189.81 3.73553C178.978 7.01475 177.736 17.6969 178.039 24.0511C178.096 25.3246 178.205 27.0204 178.338 28.9342L186.14 25.5289C186.136 24.2844 186.53 23.0711 187.263 22.0658Z" fill="#4756DF"/>
<path d="M195.361 20.9966C195.194 20.9012 195.02 20.8093 194.854 20.7208C195.027 20.8093 195.194 20.9012 195.361 20.9966Z" fill="#3EC1F3"/>
<path d="M195.882 21.3099C195.718 21.2043 195.541 21.1056 195.378 21.0068C195.548 21.1124 195.718 21.2043 195.882 21.3099Z" fill="#3EC1F3"/>
<path d="M193.134 20.0261C192.964 19.975 192.793 19.9308 192.616 19.8933C192.79 19.9308 192.964 19.975 193.134 20.0261Z" fill="#3EC1F3"/>
<path d="M194.826 20.7072C194.656 20.622 194.486 20.5369 194.312 20.462C194.486 20.5369 194.656 20.622 194.826 20.7072Z" fill="#3EC1F3"/>
<path d="M191.969 19.7911C191.799 19.7741 191.629 19.7639 191.455 19.7605C191.625 19.7503 191.799 19.7741 191.969 19.7911Z" fill="#3EC1F3"/>
<path d="M192.555 19.8831C192.381 19.8456 192.215 19.8184 192.037 19.798C192.211 19.8184 192.381 19.8456 192.555 19.8831Z" fill="#3EC1F3"/>
<path d="M193.709 20.2134C193.536 20.1521 193.369 20.0942 193.192 20.0397C193.365 20.0908 193.536 20.1521 193.709 20.2134Z" fill="#3EC1F3"/>
<path d="M194.278 20.4313C194.111 20.353 193.938 20.2849 193.764 20.2168C193.938 20.2985 194.104 20.3666 194.278 20.4313Z" fill="#3EC1F3"/>
<path d="M191.421 19.7503H191.455C191.625 19.7503 191.796 19.7503 191.969 19.7809H192.037C192.211 19.8014 192.378 19.8286 192.555 19.8661H192.616C192.79 19.9035 192.957 19.9478 193.134 19.9989H193.192C193.365 20.0533 193.532 20.1112 193.709 20.1725H193.757C193.931 20.2406 194.098 20.3087 194.271 20.3871L194.312 20.4041C194.486 20.479 194.653 20.5641 194.826 20.6493H194.854C195.027 20.7378 195.194 20.8297 195.361 20.9251H195.378C195.548 21.0238 195.718 21.1226 195.882 21.2281L205.076 17.227L211.045 14.6288C209.224 8.27469 205.257 1.09648 194.234 2.66288C192.674 5.16913 190.566 10.3076 191.421 19.7503Z" fill="#3EC1F3"/>
<path d="M243.184 86.7855C240.739 86.7862 238.357 87.5626 236.381 89.0031C234.405 90.4435 232.937 92.4737 232.188 94.8014C237.201 97.3485 242.503 98.9149 246.62 97.3995C249.141 96.4288 251.511 95.1008 253.655 93.4563C252.726 91.4626 251.247 89.7756 249.392 88.5939C247.537 87.4121 245.383 86.7847 243.184 86.7855Z" fill="#CA7358"/>
<path d="M211.985 105.984C223.222 98.6459 215.39 86.1521 214.778 85.849C223.205 75.235 210.719 66.4938 210.719 66.4938C210.719 66.4938 214.764 56.0874 205.611 50.5709H202.131L201.872 46.202H180.112L179.717 46.3144L180.085 50.5709H173.064L162.627 66.9671L159.354 85.3553L159.521 85.6311C159.41 85.8377 159.296 86.0454 159.18 86.2542C157.069 90.4086 156.759 93.9432 157.301 96.8104C158.428 102.807 163.257 105.967 163.257 105.967H211.985V105.984Z" fill="#FF7235"/>
<path d="M163.27 111.456H211.968V107.077V105.984H163.27V107.077V111.456Z" fill="#30242A"/>
<path d="M158.183 66.4937H210.718" stroke="#A15842" stroke-width="4" stroke-miterlimit="10" stroke-linecap="round"/>
<path d="M159.436 85.849H215.05" stroke="#A15842" stroke-width="4" stroke-miterlimit="10" stroke-linecap="round"/>
<path d="M202.914 52.7571L202.798 50.9115" stroke="#A15842" stroke-width="4" stroke-miterlimit="10" stroke-linecap="round"/>
<path d="M196.982 51.8206L196.672 46.8252" stroke="#A15842" stroke-width="4" stroke-miterlimit="10" stroke-linecap="round"/>
<path d="M192.3 51.8206L191.99 46.8252" stroke="#A15842" stroke-width="4" stroke-miterlimit="10" stroke-linecap="round"/>
<path d="M187.617 51.8206L187.308 46.8252" stroke="#A15842" stroke-width="4" stroke-miterlimit="10" stroke-linecap="round"/>
<path d="M241.297 71.5369L237.565 76.1714" stroke="#A15842" stroke-width="4" stroke-linecap="round" stroke-linejoin="round"/>
<path d="M197.295 42.4563C198.676 42.9391 200.106 43.2669 201.558 43.4336" stroke="#A15842" stroke-width="4" stroke-miterlimit="10" stroke-linecap="round"/>
<path d="M269.424 48.6947C269.442 49.6107 270.106 50.2577 271.151 50.2577H281.336C282.746 50.2577 284.353 49.1135 284.925 47.7003L288.031 40.0113C288.599 38.6016 287.918 37.4574 286.508 37.4574H276.32C274.91 37.4574 273.303 38.6016 272.734 40.0113L271.468 43.1475C272.224 43.9648 271.577 45.9705 269.424 48.6947Z" fill="#F5EBDD"/>
<path d="M290.397 32.4654H287.646L287.404 33.0613C287.213 33.5049 286.904 33.8876 286.511 34.168C286.118 34.4483 285.655 34.6156 285.174 34.6515H279.923C279.048 34.6515 278.622 33.9398 278.976 33.0613L279.218 32.4654H276.467C275.053 32.4654 273.449 33.6095 272.877 35.0227L269.724 42.8241C270.029 42.7503 270.345 42.7319 270.657 42.7696C270.964 42.7973 271.251 42.9324 271.468 43.151L272.734 40.0148C273.303 38.605 274.91 37.4608 276.32 37.4608H286.509C287.918 37.4608 288.599 38.605 288.031 40.0148L284.925 47.7037C284.353 49.1169 282.746 50.2611 281.336 50.2611H271.151C270.092 50.2611 269.448 49.6141 269.425 48.6981C268.295 50.1117 267.065 51.4421 265.743 52.6788L265.699 52.7911L260.932 64.563C260.363 65.9728 261.044 67.1169 262.454 67.1169H276.388C277.798 67.1169 279.405 65.9728 279.974 64.563L291.892 35.0227C292.491 33.6095 291.81 32.4654 290.397 32.4654ZM276.776 62.4313C276.591 62.8626 276.29 63.2347 275.908 63.5074C275.529 63.8021 275.067 63.9711 274.587 63.9909H266.809C265.944 63.9909 265.529 63.2928 265.876 62.4313C266.065 61.9964 266.369 61.6213 266.756 61.3464C267.142 61.0716 267.596 60.9075 268.069 60.8717H275.874C276.719 60.8751 277.134 61.5732 276.787 62.4347L276.776 62.4313Z" fill="#4756DF"/>
<path d="M275.857 60.8751H268.052C267.579 60.9109 267.125 61.075 266.739 61.3498C266.352 61.6247 266.048 61.9998 265.859 62.4347C265.519 63.2963 265.927 63.9943 266.792 63.9943H274.597C275.077 63.9745 275.539 63.8055 275.918 63.5108C276.301 63.2381 276.601 62.866 276.787 62.4347C277.134 61.5732 276.718 60.8751 275.857 60.8751Z" fill="#3EC1F3"/>
<path d="M279.923 34.6515H285.174C285.655 34.6156 286.118 34.4483 286.511 34.168C286.904 33.8876 287.213 33.5049 287.404 33.0613L287.646 32.4654H279.218L278.976 33.0613C278.622 33.9398 279.048 34.6515 279.923 34.6515Z" fill="#3EC1F3"/>
<path d="M218.837 11.8638L197.922 21.2281" stroke="#30242A" stroke-width="4" stroke-linecap="round" stroke-linejoin="round"/>
<path d="M212.118 31.3961C211.491 31.563 209.442 31.2191 209.104 29.4586" stroke="black" stroke-width="4" stroke-miterlimit="10" stroke-linecap="round"/>
<path d="M208.893 22.4915C209.45 22.4915 209.901 22.0402 209.901 21.4835C209.901 20.9269 209.45 20.4756 208.893 20.4756C208.337 20.4756 207.885 20.9269 207.885 21.4835C207.885 22.0402 208.337 22.4915 208.893 22.4915Z" fill="#30242A"/>
<path d="M191.591 26.0567L195.252 28.3859" stroke="#A15842" stroke-width="4" stroke-miterlimit="10" stroke-linecap="round"/>
<path d="M199.481 23.4143L203.54 26.5335" stroke="#30242A" stroke-width="4" stroke-linecap="round" stroke-linejoin="round"/>
<path d="M191.676 34.0284L202.604 34.3383" stroke="#30242A" stroke-width="4" stroke-linecap="round" stroke-linejoin="round"/>
<path d="M234.119 107.077C235.361 107.077 236.552 107.57 237.43 108.449C238.308 109.327 238.801 110.518 238.801 111.759V111.759C238.803 112.376 238.683 112.986 238.449 113.556C238.214 114.126 237.87 114.644 237.435 115.08C237 115.517 236.483 115.863 235.914 116.1C235.345 116.336 234.735 116.458 234.119 116.459" stroke="#FF7235" stroke-width="4" stroke-miterlimit="10"/>
<path d="M240.688 107.077C241.927 107.081 243.115 107.576 243.99 108.453C244.865 109.331 245.356 110.52 245.356 111.759C245.36 113.001 244.87 114.194 243.995 115.075C243.119 115.957 241.93 116.454 240.688 116.459" stroke="#FF7235" stroke-width="4" stroke-miterlimit="10"/>
<path d="M274.437 107.7H222.862C220.639 107.7 218.837 109.502 218.837 111.725V111.793C218.837 114.016 220.639 115.818 222.862 115.818H274.437C276.66 115.818 278.462 114.016 278.462 111.793V111.725C278.462 109.502 276.66 107.7 274.437 107.7Z" fill="#30242A"/>
<path d="M283.087 280.729L252.022 107.905L244.032 109.342L275.097 282.165L283.087 280.729Z" fill="#30242A"/>
<path d="M222.93 107.7H222.862C220.639 107.7 218.837 109.502 218.837 111.725V111.793C218.837 114.016 220.639 115.818 222.862 115.818H222.93C225.153 115.818 226.955 114.016 226.955 111.793V111.725C226.955 109.502 225.153 107.7 222.93 107.7Z" stroke="#FF7235" stroke-width="4" stroke-miterlimit="10"/>
<path d="M261.892 107.333C262.811 107.652 263.608 108.25 264.172 109.044C264.736 109.837 265.039 110.786 265.039 111.759V111.759C265.038 112.669 264.773 113.559 264.275 114.32C263.778 115.081 263.069 115.681 262.236 116.047" stroke="#FF7235" stroke-width="4" stroke-miterlimit="10" stroke-linecap="round"/>
<path d="M267.34 107.333C268.26 107.652 269.057 108.25 269.62 109.044C270.184 109.837 270.487 110.786 270.487 111.759V111.759C270.487 112.669 270.222 113.559 269.724 114.32C269.226 115.081 268.517 115.681 267.684 116.047" stroke="#FF7235" stroke-width="4" stroke-miterlimit="10" stroke-linecap="round"/>
<path d="M279.085 281.894H165.143V290.012H279.085V281.894Z" fill="#30242A"/>
<path d="M172.165 300C177.682 300 182.155 295.527 182.155 290.009C182.155 284.491 177.682 280.018 172.165 280.018C166.647 280.018 162.174 284.491 162.174 290.009C162.174 295.527 166.647 300 172.165 300Z" fill="#30242A"/>
<path d="M172.165 293.755C174.233 293.755 175.91 292.078 175.91 290.009C175.91 287.94 174.233 286.263 172.165 286.263C170.096 286.263 168.419 287.94 168.419 290.009C168.419 292.078 170.096 293.755 172.165 293.755Z" fill="#FFB7D5"/>
<path d="M280.856 300C286.374 300 290.847 295.527 290.847 290.009C290.847 284.491 286.374 280.018 280.856 280.018C275.338 280.018 270.865 284.491 270.865 290.009C270.865 295.527 275.338 300 280.856 300Z" fill="#30242A"/>
<path d="M280.856 293.755C282.925 293.755 284.602 292.078 284.602 290.009C284.602 287.94 282.925 286.263 280.856 286.263C278.787 286.263 277.11 287.94 277.11 290.009C277.11 292.078 278.787 293.755 280.856 293.755Z" fill="#FFB7D5"/>
<path d="M187.774 290.009H156.558C156.619 285.91 158.29 281.998 161.21 279.121C164.131 276.243 168.066 274.63 172.166 274.63C176.266 274.63 180.202 276.243 183.122 279.121C186.043 281.998 187.714 285.91 187.774 290.009Z" fill="#FF7235"/>
<path d="M296.462 290.009H265.246C265.307 285.91 266.978 281.998 269.898 279.121C272.819 276.243 276.754 274.63 280.854 274.63C284.954 274.63 288.889 276.243 291.81 279.121C294.73 281.998 296.401 285.91 296.462 290.009Z" fill="#FF7235"/>
<path d="M203.009 254.734H232.205C232.546 249.627 233.513 242.496 234.701 232.703C237.208 212.023 239.087 193.222 236.581 178.185C234.075 163.148 211.968 111.443 211.968 111.443H170.333C167.064 139.655 194.367 171.736 203.057 185.06C212.455 199.474 204.623 208.873 199.611 222.97C194.598 237.068 203.057 243.024 203.057 243.024C202.798 246.923 202.782 250.834 203.009 254.734Z" fill="#4856DF"/>
<path d="M207.729 278.149H248.837C245.932 271.338 237.024 267.97 234.075 265.287C232.26 263.639 231.838 260.425 232.205 254.731H203.009C203.646 265.628 206.074 273.742 207.729 278.149Z" fill="#30242A"/>
<path d="M209.322 281.894H249.742C249.655 280.604 249.348 279.337 248.837 278.149H207.729C208.192 279.425 208.724 280.675 209.322 281.894Z" fill="#3EC1F3"/>
<path d="M214.362 244.12V254.37" stroke="#3EC1F3" stroke-width="4" stroke-miterlimit="10" stroke-linecap="round"/>
<path d="M207.286 244.12V254.37" stroke="#3EC1F3" stroke-width="4" stroke-miterlimit="10" stroke-linecap="round"/>
<path d="M221.438 244.12V254.37" stroke="#3EC1F3" stroke-width="4" stroke-miterlimit="10" stroke-linecap="round"/>
<path d="M228.514 244.12V254.37" stroke="#3EC1F3" stroke-width="4" stroke-miterlimit="10" stroke-linecap="round"/>
<path d="M203.132 243.807H233.098" stroke="#3EC1F3" stroke-width="4" stroke-miterlimit="10" stroke-linecap="round"/>
<path d="M221.946 135.678C220.924 133.151 219.95 130.706 219.014 128.407L203.69 125.717V125.772C203.387 127.495 203.782 129.269 204.786 130.702C205.791 132.135 207.323 133.11 209.047 133.413L221.946 135.678Z" fill="#3EC1F3"/>
<path d="M227.578 263.162L232.417 261.18" stroke="white" stroke-width="4" stroke-linecap="round" stroke-linejoin="round"/>
<path d="M230.077 267.848L234.119 264.586" stroke="white" stroke-width="4" stroke-linecap="round" stroke-linejoin="round"/>
<path d="M280.335 63.6776C280.335 63.6776 285.695 63.8888 286.124 59.2066C286.124 59.2066 289.951 57.4461 288.95 53.9489C288.95 53.9489 292.451 52.9478 291.449 49.4472C291.385 49.2259 293.438 48.8275 293.336 45.9432C293.186 41.7344 290.333 38.7037 289.086 38.3905C285.341 37.454 286.764 43.5392 286.587 43.3859C284.404 41.5131 281.217 40.6617 280.079 41.6152C278.098 43.277 279.473 45.4972 279.473 45.4972C279.473 45.4972 276.933 44.8978 275.69 46.7333C274.178 48.9603 276.882 51.0375 276.882 51.0375C276.882 51.0375 274.049 51.3541 274.522 53.9762C275.047 56.9081 279.449 57.5619 281.537 60.6334L280.335 63.6776Z" fill="#EAA58B"/>
<path d="M276.766 50.4994C279.749 51.6197 284.939 54.1021 286.413 58.1986" stroke="#A15842" stroke-width="4" stroke-linecap="round" stroke-linejoin="round"/>
<path d="M280.11 45.2894C282.664 46.6822 287.176 49.5426 289.209 53.2747" stroke="#A15842" stroke-width="4" stroke-linecap="round" stroke-linejoin="round"/>
<path d="M180.126 50.5709C180.126 50.5709 191.316 67.4234 188.244 83.6629C186.058 95.2134 159.834 105.221 144.538 108.627V99.5823C144.538 99.5823 176.38 91.7809 180.126 77.731C182.397 69.2179 173.258 50.5709 173.258 50.5709" fill="#F5EBDD"/>
<path d="M254.111 105.221C252.238 100.536 246.306 95.5437 239.438 93.0443C226.239 88.2463 194.173 95.2304 194.173 95.2304L189.368 84.9705L165.725 96.5482C169.131 103.192 173.217 108.776 177.392 112.638C178.813 110.878 180.72 109.574 182.876 108.889C185.033 108.204 187.343 108.167 189.519 108.784C191.696 109.401 193.643 110.644 195.12 112.358C196.596 114.072 197.536 116.183 197.823 118.427C210.896 117.405 225.354 111.429 229.454 107.741C229.454 107.741 231.95 109.927 234.759 110.237C234.759 111.174 230.39 123.661 238.195 120.851C238.195 120.851 240.378 123.661 243.501 120.541C243.501 120.541 245.687 123.661 248.809 120.851C248.809 120.851 250.512 121.917 252.865 119.292C255.671 116.118 256.502 111.177 254.111 105.221Z" fill="#EAA58B"/>
<path d="M173.258 50.5709H172.485C166.148 50.5709 155.772 55.2565 157.022 67.3927C158.119 77.552 161.067 87.4243 165.722 96.521L189.364 84.9432L173.258 50.5709Z" fill="#FFB7D5"/>
<path d="M186.371 108.323C184.649 108.322 182.949 108.707 181.395 109.449C179.841 110.19 178.473 111.271 177.392 112.611C178.257 113.418 179.166 114.176 180.116 114.882C184.512 118.096 190.972 118.921 197.823 118.386C197.463 115.603 196.102 113.047 193.994 111.196C191.887 109.344 189.177 108.323 186.371 108.323Z" fill="#CA7358"/>
<path d="M238.468 120.327C239.83 117.603 242.922 110.54 240.688 105.827" stroke="#A15842" stroke-width="4" stroke-linecap="round" stroke-linejoin="round"/>
<path d="M186.058 96.1498L193.417 94.6413" stroke="#A15842" stroke-width="4" stroke-linecap="round" stroke-linejoin="round"/>
<path d="M243.994 120.204C245.411 117.33 248.476 110.401 246.306 105.827" stroke="#A15842" stroke-width="4" stroke-linecap="round" stroke-linejoin="round"/>
<path d="M249.443 120.545C250.805 117.8 253.832 110.513 251.615 105.827" stroke="#A15842" stroke-width="4" stroke-linecap="round" stroke-linejoin="round"/>
</svg>
