<svg width="250" height="250" viewBox="0 0 250 250" fill="none" xmlns="http://www.w3.org/2000/svg">
<path d="M46.96 220C89.8 239.5 159.25 239.5 202.09 220C244.93 200.5 244.925 168.845 202.09 149.335C159.255 129.825 89.8 129.835 46.96 149.335C4.11996 168.835 4.11996 200.5 46.96 220Z" fill="#F5F5F5"/>
<path d="M198.655 193.445C212.769 193.445 224.21 187.992 224.21 181.265C224.21 174.538 212.769 169.085 198.655 169.085C184.541 169.085 173.1 174.538 173.1 181.265C173.1 187.992 184.541 193.445 198.655 193.445Z" fill="#E0E0E0"/>
<path d="M48.89 199.8C63.0036 199.8 74.445 194.347 74.445 187.62C74.445 180.893 63.0036 175.44 48.89 175.44C34.7763 175.44 23.335 180.893 23.335 187.62C23.335 194.347 34.7763 199.8 48.89 199.8Z" fill="#E0E0E0"/>
<path d="M33.705 185.04H38.39V177.02H33.705V185.04Z" fill="#B16668"/>
<path d="M52.86 178.97L57.545 179.13L57.78 170.645L52.86 170.485V178.97Z" fill="#B16668"/>
<path d="M35.105 120.15C35.105 124.62 35.34 150.54 35.34 150.54C35.23 151.825 33.995 154.115 33.895 158.75C33.755 165.47 33.505 181.035 33.505 181.035C34.3142 181.431 35.2005 181.646 36.1014 181.663C37.0024 181.68 37.8962 181.5 38.72 181.135C38.72 181.135 43.685 159 44.525 152.36C45.255 146.55 46.525 130.775 46.525 130.775L50.105 150.405C49.5551 152.846 49.3514 155.352 49.5 157.85C49.72 160.925 52.57 176.35 52.57 176.35C53.3864 176.811 54.2941 177.087 55.2289 177.159C56.1637 177.23 57.1028 177.096 57.98 176.765C57.98 176.765 58.26 152.565 58.31 149.765C58.375 146.545 56.97 118.85 56.97 118.85L35.105 120.15Z" fill="#37474F"/>
<path d="M38.39 182.73V182.06C38.64 182.06 38.795 182.305 38.89 182.905C38.9565 183.351 39.0467 183.793 39.16 184.23C39.3698 185.05 39.644 185.853 39.98 186.63C40.64 188.26 41.195 188.87 42.715 190.775C43.2334 191.303 43.7192 191.863 44.17 192.45C44.45 192.95 44.55 194.355 44.07 194.675C42.3 195.855 39.615 195.89 37.715 195.33C37.0071 195.133 36.3707 194.737 35.8822 194.188C35.3936 193.639 35.0735 192.961 34.96 192.235C34.89 191.8 34.9151 191.36 34.8651 190.925C34.7006 189.937 34.2992 189.004 33.695 188.205C33.3405 187.74 33.0387 187.237 32.795 186.705C32.4 185.74 32.715 184.66 32.965 183.705C33.185 182.875 33.4201 181.965 33.7001 182.045V182.545C34.3685 183.069 35.1961 183.347 36.045 183.335C36.735 183.39 38.395 183.25 38.39 182.73Z" fill="#263238"/>
<path d="M57.5951 177.685C57.8351 177.685 58.0351 178.04 58.5951 178.62C59.3967 179.434 60.3276 180.11 61.3501 180.62C63.1051 181.5 66.5151 182.85 68.0551 183.545C69.0201 183.98 68.9751 185.145 67.9801 185.805C66.9851 186.465 64.5751 186.945 61.6901 186.305C60.1151 185.955 58.0651 184.5 56.7701 184.58C55.4751 184.66 53.0451 184.64 52.0901 183.98C51.1351 183.32 51.5151 181.91 51.7851 180.7C52.0801 179.375 52.4501 177.315 52.8851 177.405V177.86C53.4501 178.715 56.3551 179.06 57.5951 178.435V177.685Z" fill="#263238"/>
<path d="M46.5 130.775C48.9132 130.017 51.1316 128.74 53 127.035C53 127.035 51.74 129.39 48 131.585L49.81 149.045L46.5 130.775Z" fill="#263238"/>
<path d="M53.945 109.45C50.885 99.26 51.49 90.63 50.915 87.99L58.76 98.945C59.0921 102.556 59.6279 106.145 60.365 109.695C61.27 113.59 62.505 118.445 63.985 121.465C64.2536 121.997 64.7069 122.413 65.26 122.635C66.76 123.24 67.43 124.005 68.615 124.88C69.545 125.57 70.25 125.66 70.195 125.94C70.0923 126.255 69.8748 126.52 69.5858 126.682C69.2968 126.844 68.9574 126.892 68.635 126.815C67.9196 126.665 67.2247 126.43 66.565 126.115C67.2303 127.244 68.0746 128.257 69.065 129.115C71.335 131.09 71.66 132.485 67.89 133.17C65.525 133.605 63.39 132.47 60.695 127.56C59.6742 125.773 58.7836 123.915 58.03 122C56.23 117 54.87 112.535 53.945 109.45Z" fill="#B16668"/>
<path d="M50.28 85.455C52.715 85.885 55.125 86.455 56.62 88.795C58.115 91.135 60.275 102.18 60.275 102.18C60.275 102.18 57.135 104.385 53.535 104.29L50.28 85.455Z" fill="#BA68C8"/>
<path opacity="0.1" d="M50.28 85.455C52.715 85.885 55.125 86.455 56.62 88.795C58.115 91.135 60.275 102.18 60.275 102.18C60.275 102.18 57.135 104.385 53.535 104.29L50.28 85.455Z" fill="black"/>
<path d="M33.5 89.56C31.865 90.725 23.24 110.205 22.91 111.56C22.465 113.405 22.67 115.47 23.575 116.14C24.48 116.81 26.475 115.85 27.52 114.83C29.52 112.83 36.52 98.26 36.52 98.26L33.5 89.56Z" fill="#9A4A4D"/>
<path d="M42.075 85.5C38.075 86.46 33.075 88.065 31.29 91.725C29.505 95.385 26.79 101.33 26.79 101.33C28.6401 103.135 30.8968 104.469 33.37 105.22L35.37 101.72L35.075 120.22C38.3 122.57 50.145 123.85 56.935 118.89C56.935 118.89 56.105 96.71 56.105 93.255C56.105 89.8 54.185 85.655 48.89 85.345L42.075 85.5Z" fill="#BA68C8"/>
<path opacity="0.1" d="M35.4001 101.675C35.4001 101.675 37.4001 98.22 37.8251 97.385L35.3251 105.885L35.4001 101.675Z" fill="black"/>
<path d="M49.6551 76.52C53.209 76.52 56.0901 73.6389 56.0901 70.085C56.0901 66.531 53.209 63.65 49.6551 63.65C46.1011 63.65 43.2201 66.531 43.2201 70.085C43.2201 73.6389 46.1011 76.52 49.6551 76.52Z" fill="#263238"/>
<path d="M38.525 74.66C38.525 74.66 39.57 79.56 39.99 80.365C40.2675 80.8619 40.726 81.2327 41.27 81.4L41.2 77.955L38.525 74.66Z" fill="#263238"/>
<path d="M39.835 67.64C39.47 67.5983 39.1004 67.6401 38.7539 67.7623C38.4074 67.8844 38.0932 68.0836 37.835 68.345C36.98 69.22 37.46 71.97 38.525 74.66L40.49 74.885L39.835 67.64Z" fill="#263238"/>
<path d="M41.0801 74.89C40.6851 75.125 40.1251 74.365 39.6401 73.86C39.1551 73.355 37.5651 72.655 36.7751 74.32C35.9851 75.985 37.4751 78.265 38.7251 78.66C40.8751 79.335 41.2251 77.955 41.2251 77.955L41.3801 85.955C44.0551 89.385 51.4801 89.095 48.3801 85.515V83.15C49.3384 83.3053 50.3108 83.3556 51.2801 83.3C52.8651 83.055 53.8601 81.8 54.3401 80.095C55.1101 77.345 55.4051 75.095 54.7501 69.71C54.0351 63.78 47.1351 63.71 43.4101 66.065C39.6851 68.42 41.0801 74.89 41.0801 74.89Z" fill="#B16668"/>
<path d="M41.08 75.55C40.88 75.55 40.13 74.305 39.64 73.86C38.96 73.24 39.835 67.64 39.835 67.64C39.6049 67.1502 39.5266 66.6027 39.6104 66.068C39.6942 65.5333 39.9361 65.0359 40.305 64.64C41.235 63.615 42.535 62.36 46.755 62.86C49.755 63.22 53.045 64.155 55.695 62.86C55.9414 63.7239 55.9235 64.6418 55.6437 65.4954C55.3639 66.3491 54.835 67.0995 54.125 67.65C54.125 67.65 53.165 68.265 50.625 68.575C48.2926 68.75 45.9489 68.7048 43.625 68.44C42.895 68.34 42.74 69.05 42.345 70.985C42.035 72.66 41.745 75.54 41.08 75.55Z" fill="#263238"/>
<path d="M39.8401 68.075L37.4601 66.795C37.5365 66.6353 37.6444 66.4927 37.7773 66.3757C37.9102 66.2588 38.0653 66.1699 38.2334 66.1143C38.4015 66.0587 38.5791 66.0377 38.7555 66.0524C38.9319 66.0671 39.1035 66.1173 39.2601 66.2C39.5795 66.3777 39.8181 66.6719 39.9262 67.0211C40.0342 67.3704 40.0034 67.7479 39.8401 68.075Z" fill="#263238"/>
<path d="M48.355 83.145C48.355 83.145 44.825 82.435 43.59 81.78C42.8634 81.4009 42.2676 80.8121 41.88 80.09C42.0666 80.8147 42.3964 81.4947 42.85 82.09C43.755 83.245 48.35 84.09 48.35 84.09L48.355 83.145Z" fill="#9A4A4D"/>
<path d="M47.5 74C47.5027 74.1914 47.4296 74.3761 47.2966 74.5138C47.1635 74.6515 46.9815 74.731 46.79 74.735C46.6008 74.7272 46.422 74.6462 46.2914 74.509C46.1608 74.3719 46.0886 74.1893 46.09 74C46.0874 73.8085 46.1605 73.6238 46.2935 73.4861C46.4265 73.3484 46.6086 73.2689 46.8 73.265C46.9893 73.2727 47.1681 73.3537 47.2987 73.4909C47.4293 73.628 47.5015 73.8106 47.5 74Z" fill="#263238"/>
<path d="M46.755 71.33L45.255 72.17C45.146 71.9621 45.1216 71.7201 45.1868 71.4946C45.2521 71.2691 45.4019 71.0776 45.605 70.96C45.7044 70.9068 45.8135 70.8742 45.9258 70.8641C46.038 70.8539 46.1512 70.8665 46.2585 70.901C46.3658 70.9356 46.4651 70.9913 46.5504 71.065C46.6357 71.1387 46.7053 71.2288 46.755 71.33Z" fill="#263238"/>
<path d="M48.035 78.895L49.655 79.5C49.6203 79.6089 49.5638 79.7097 49.4889 79.7961C49.4141 79.8826 49.3224 79.953 49.2196 80.003C49.1168 80.053 49.0048 80.0817 48.8906 80.0871C48.7764 80.0926 48.6622 80.0749 48.555 80.035C48.3372 79.9498 48.1611 79.7831 48.0641 79.5703C47.967 79.3575 47.9566 79.1153 48.035 78.895Z" fill="#9A4A4D"/>
<path d="M53.8201 71.9199L52.4401 70.8599C52.5041 70.7658 52.5869 70.6858 52.6832 70.625C52.7795 70.5642 52.8873 70.5239 52.9998 70.5065C53.1124 70.4892 53.2273 70.4952 53.3375 70.5241C53.4476 70.5531 53.5506 70.6045 53.6401 70.675C53.8236 70.8201 53.9445 71.0301 53.9779 71.2616C54.0114 71.4932 53.9549 71.7288 53.8201 71.9199Z" fill="#263238"/>
<path d="M53.3951 73.805C53.3892 73.944 53.3426 74.0782 53.2611 74.1909C53.1796 74.3037 53.0668 74.39 52.9366 74.4392C52.8065 74.4883 52.6648 74.4982 52.5291 74.4675C52.3934 74.4368 52.2697 74.3669 52.1734 74.2666C52.0771 74.1662 52.0124 74.0397 51.9873 73.9028C51.9623 73.766 51.978 73.6248 52.0325 73.4968C52.087 73.3688 52.1779 73.2597 52.2939 73.1829C52.4099 73.1061 52.546 73.0651 52.6851 73.065C52.7803 73.067 52.8742 73.0876 52.9614 73.1259C53.0486 73.1641 53.1274 73.2192 53.1934 73.2879C53.2593 73.3566 53.3111 73.4377 53.3457 73.5264C53.3803 73.6151 53.3971 73.7098 53.3951 73.805Z" fill="#263238"/>
<path d="M49.79 73.13L50.02 77.39L52.245 76.63L49.79 73.13Z" fill="#9A4A4D"/>
<path d="M30.9451 123.435C30.8788 123.435 30.8152 123.409 30.7683 123.362C30.7214 123.315 30.6951 123.251 30.6951 123.185V44.545C30.6951 44.4787 30.7214 44.4151 30.7683 44.3682C30.8152 44.3213 30.8788 44.295 30.9451 44.295C31.0114 44.295 31.075 44.3213 31.1218 44.3682C31.1687 44.4151 31.1951 44.4787 31.1951 44.545V123.185C31.1951 123.251 31.1687 123.315 31.1218 123.362C31.075 123.409 31.0114 123.435 30.9451 123.435Z" fill="#37474F"/>
<path d="M32.845 51.39C32.845 50.585 31.18 48.39 30.845 48.39C30.51 48.39 29.025 50.545 29.025 51.39C29.0402 51.5575 29.0996 51.7179 29.1971 51.855C29.2946 51.992 29.4267 52.1007 29.58 52.17C29.9958 52.382 30.4558 52.4925 30.9225 52.4925C31.3892 52.4925 31.8493 52.382 32.265 52.17C32.4192 52.1014 32.5524 51.993 32.6508 51.8559C32.7492 51.7188 32.8094 51.558 32.825 51.39H32.845Z" fill="#BA68C8"/>
<path opacity="0.1" d="M32.845 51.39C32.845 50.585 31.18 48.39 30.845 48.39C30.51 48.39 29.025 50.545 29.025 51.39C29.0402 51.5575 29.0996 51.7179 29.1971 51.855C29.2946 51.992 29.4267 52.1007 29.58 52.17C29.9958 52.382 30.4558 52.4925 30.9225 52.4925C31.3892 52.4925 31.8493 52.382 32.265 52.17C32.4192 52.1014 32.5524 51.993 32.6508 51.8559C32.7492 51.7188 32.8094 51.558 32.825 51.39H32.845Z" fill="black"/>
<path d="M42.0001 33.94C42.0001 40.09 37.1701 47.86 30.8601 49.33C24.5001 47.555 19.7251 40.09 19.7251 33.94C19.7251 27.79 23.6851 22.04 30.8651 22.04C38.0451 22.04 42.0001 27.785 42.0001 33.94Z" fill="#BA68C8"/>
<path opacity="0.05" d="M20.135 30.565C19.8595 31.6687 19.7218 32.8024 19.725 33.94C19.725 40.09 24.515 47.555 30.865 49.33C36.11 48.105 40.33 42.53 41.605 37.15C41.605 37.15 39.945 43.055 32.64 43.53C25.335 44.005 19.44 35.655 20.135 30.565Z" fill="black"/>
<path d="M23.825 116.26C22.495 115.88 21.13 111.9 21.23 109.35C21.33 106.8 24.76 95.77 25.23 93.65C25.765 91.31 25.73 89.53 26.205 88.315C26.905 86.52 29.205 85.535 29.205 85.535C29.205 85.535 32.205 84.1 33.285 83.885C34.365 83.67 34.785 84.385 34.665 84.95C34.545 85.515 34.165 86.95 34.065 87.73C33.9938 88.7283 33.7018 89.6983 33.21 90.57C32.645 91.475 30.34 93.64 30.25 94.845C30.16 96.05 29.495 102.59 29.115 107.345C28.8 111.235 28.41 112.845 27.565 113.875C26.72 114.905 24.86 116.55 23.825 116.26Z" fill="#B16668"/>
<path d="M211.535 172.52H206.785V180.65H211.535V172.52Z" fill="#FFA8A7"/>
<path d="M195.07 172.09L190.325 172.25L190.09 163.65L195.07 163.485V172.09Z" fill="#FFA8A7"/>
<path d="M210 112.025C210 116.56 210.71 143.795 210.71 143.795C210.82 145.1 212.075 147.42 212.175 152.12C212.315 158.935 211.725 176.585 211.725 176.585C210.905 176.987 210.007 177.205 209.094 177.223C208.181 177.241 207.275 177.059 206.44 176.69C206.44 176.69 202.25 152.385 201.4 145.64C200.66 139.755 199.4 123.76 199.4 123.76L196.835 143C197.384 145.475 197.583 148.015 197.425 150.545C197.2 153.665 195.375 169.445 195.375 169.445C194.545 169.913 193.622 170.193 192.671 170.265C191.721 170.337 190.766 170.198 189.875 169.86C189.875 169.86 187.475 145.86 187.42 143C187.36 139.735 189 106.42 189 106.42L210 112.025Z" fill="#BA68C8"/>
<path d="M191.39 102.66C194.45 92.465 193.845 83.835 194.42 81.195L186.575 92.15C186.243 95.7623 185.707 99.3531 184.97 102.905C184.065 106.8 182.83 111.655 181.35 114.675C181.081 115.206 180.628 115.62 180.075 115.84C178.575 116.445 177.905 117.21 176.72 118.09C175.79 118.775 175.085 118.865 175.14 119.145C175.247 119.456 175.466 119.717 175.754 119.875C176.043 120.033 176.38 120.078 176.7 120C177.415 119.849 178.11 119.614 178.77 119.3C178.104 120.428 177.26 121.441 176.27 122.3C174 124.27 173.675 125.665 177.445 126.35C179.81 126.785 181.945 125.65 184.64 120.74C185.666 118.95 186.561 117.089 187.32 115.17C189.105 110.18 190.465 105.74 191.39 102.66Z" fill="#FFA8A7"/>
<path d="M195.05 78.66C192.615 79.09 190.21 79.66 188.715 82C187.22 84.34 185.06 95.385 185.06 95.385C185.06 95.385 188.2 97.59 191.8 97.495L195.05 78.66Z" fill="#E0E0E0"/>
<path d="M211.83 82.77C213.465 83.93 222.09 103.41 222.42 104.77C222.86 106.615 222.66 108.685 221.755 109.35C220.85 110.015 218.855 109.06 217.81 108.04C215.81 106.04 208.785 91.475 208.785 91.475L211.83 82.77Z" fill="#F28F8F"/>
<path d="M203.34 78.655C207.315 79.615 212.34 81.22 214.12 84.88C215.9 88.54 218.62 94.48 218.62 94.48C216.769 96.2858 214.51 97.62 212.035 98.37L210.035 94.87L210.33 113.345C207.105 115.695 195.26 116.97 188.47 112.015C188.47 112.015 189.305 89.83 189.305 86.38C189.305 82.93 191.22 78.78 196.52 78.47L203.34 78.655Z" fill="#F0F0F0"/>
<path d="M210 94.855C210 94.855 208 91.395 207.575 90.565L210.075 99.065L210 94.855Z" fill="#E0E0E0"/>
<path d="M206.785 178.305V177.625C206.33 177.825 205.285 181.85 203.39 183.57C201.89 184.935 199.85 186.515 199.33 188.035C198.81 189.555 202.175 190.495 203.575 190.245C205.2 189.96 208.02 188.815 208.725 187.745C209.43 186.675 209.765 185.12 210.34 184.345C210.915 183.57 212.24 182.695 212.55 181.795C212.72 181.295 212.52 180.22 212.28 179.295C212.04 178.37 211.82 177.53 211.535 177.61V178.11C210.858 178.64 210.02 178.922 209.16 178.91C208.465 179 206.78 178.835 206.785 178.305Z" fill="#263238"/>
<path d="M190.275 170.785C190.03 170.785 189.83 171.145 189.275 171.73C188.464 172.549 187.521 173.225 186.485 173.73C184.705 174.62 181.25 175.99 179.685 176.695C178.685 177.135 178.755 178.315 179.765 178.985C180.775 179.655 183.21 180.145 186.14 179.485C187.735 179.125 189.815 177.655 191.14 177.73C192.465 177.805 194.915 177.795 195.885 177.125C196.855 176.455 196.47 175.025 196.195 173.8C195.895 172.46 195.52 170.37 195.075 170.465V170.925C194.505 171.79 191.575 172.14 190.305 171.505L190.275 170.785Z" fill="#263238"/>
<path opacity="0.1" d="M199.41 123.76C196.955 122.994 194.697 121.701 192.795 119.97C192.795 119.97 194.075 122.36 197.865 124.58L197.055 141.335L199.41 123.76Z" fill="black"/>
<path d="M204.83 61C205.186 60.9576 205.548 60.9973 205.887 61.116C206.226 61.2347 206.533 61.4294 206.785 61.685C207.625 62.545 207.45 64.135 206.785 67.785L204.19 68.085L204.83 61Z" fill="#263238"/>
<path d="M189.705 59.93C189.146 59.9325 188.593 59.8202 188.08 59.6C187.285 59.14 187.08 60.045 187.51 60.83C187.798 61.3915 188.225 61.8701 188.75 62.2201C189.275 62.5702 189.881 62.7801 190.51 62.83C190.51 62.72 191.255 60.83 191.255 60.83L189.705 59.93Z" fill="#263238"/>
<path d="M203.615 68.07C204 68.3 204.55 67.57 205.025 67.07C205.5 66.57 207.05 65.89 207.82 67.52C208.59 69.15 206.82 71.39 205.77 72.12C204.52 72.99 203.615 72.31 203.615 72.31L203.34 78.66C203.34 78.66 201.96 82.03 198.23 82.535C194.5 83.04 195.27 79.97 196.495 78.46V76.15C196.495 76.15 194.57 76.53 193.66 76.295C193 76.087 192.402 75.7187 191.92 75.2231C191.437 74.7275 191.085 74.12 190.895 73.455C189.87 70.0672 189.656 66.4858 190.27 63C191.22 57.235 197.72 57.14 201.36 59.43C205 61.72 203.615 68.07 203.615 68.07Z" fill="#FFA8A7"/>
<path d="M203.615 68.72C203.805 68.72 204.545 67.5 205.025 67.065C205.69 66.46 204.83 60.985 204.83 60.985C204.83 60.985 205.505 58.91 204.19 57.53C202.875 56.15 200.33 56.385 198.47 56.32C196.185 56.3349 193.922 55.8805 191.82 54.985C189.18 53.835 188.98 53.7 188.65 54.86C188.32 56.02 188.2 58.68 189.78 60.46L191.09 60.96C191.09 60.96 191.8 61.585 194.265 61.885C196.539 62.0573 198.824 62.0137 201.09 61.755C201.805 61.66 201.96 62.35 202.345 64.255C202.68 65.89 202.96 68.705 203.615 68.72Z" fill="#263238"/>
<path d="M204.825 61.41L207.155 60.16C207.081 60.0035 206.975 59.8637 206.846 59.749C206.716 59.6342 206.564 59.5469 206.4 59.4922C206.235 59.4376 206.062 59.4167 205.889 59.431C205.716 59.4452 205.548 59.4942 205.395 59.575C205.082 59.7486 204.848 60.0363 204.742 60.3782C204.636 60.72 204.665 61.0896 204.825 61.41Z" fill="#263238"/>
<path d="M196.5 76.145C196.5 76.145 199.955 75.45 201.16 74.81C201.871 74.4401 202.454 73.863 202.83 73.155C202.648 73.8623 202.325 74.5256 201.88 75.105C201 76.235 196.5 77.065 196.5 77.065V76.145Z" fill="#F28F8F"/>
<path d="M197.325 67.09C197.33 67.2263 197.375 67.3581 197.454 67.4691C197.533 67.58 197.644 67.6652 197.771 67.714C197.898 67.7628 198.037 67.773 198.17 67.7435C198.303 67.7139 198.425 67.6458 198.52 67.5477C198.614 67.4496 198.678 67.3257 198.703 67.1917C198.728 67.0576 198.713 66.9191 198.659 66.7936C198.606 66.668 198.517 66.5609 198.403 66.4856C198.29 66.4103 198.156 66.3701 198.02 66.37C197.927 66.3713 197.835 66.391 197.75 66.4279C197.664 66.4649 197.587 66.5184 197.523 66.5853C197.458 66.6522 197.407 66.7313 197.373 66.8179C197.339 66.9045 197.323 66.997 197.325 67.09Z" fill="#263238"/>
<path d="M198.185 64.225L199.685 65.045C199.792 64.8419 199.815 64.6054 199.751 64.3853C199.686 64.1652 199.539 63.9786 199.34 63.865C199.241 63.8085 199.132 63.7729 199.019 63.7605C198.907 63.7481 198.792 63.7591 198.684 63.7929C198.575 63.8267 198.475 63.8825 198.389 63.9569C198.303 64.0312 198.234 64.1225 198.185 64.225Z" fill="#263238"/>
<path d="M197.38 71.9L195.8 72.5C195.834 72.6063 195.89 72.7047 195.963 72.7891C196.036 72.8735 196.125 72.9423 196.226 72.9913C196.326 73.0403 196.435 73.0686 196.547 73.0744C196.659 73.0802 196.77 73.0634 196.875 73.025C197.09 72.9411 197.263 72.7762 197.358 72.5658C197.452 72.3554 197.46 72.1163 197.38 71.9Z" fill="#F28F8F"/>
<path d="M190.835 65.215L192.185 64.175C192.122 64.082 192.04 64.0032 191.944 63.9435C191.849 63.8838 191.742 63.8445 191.631 63.828C191.519 63.8116 191.406 63.8184 191.297 63.848C191.189 63.8776 191.088 63.9293 191 64C190.823 64.1434 190.707 64.349 190.677 64.5748C190.646 64.8005 190.703 65.0295 190.835 65.215Z" fill="#263238"/>
<path d="M191.61 66.895C191.615 67.0315 191.66 67.1635 191.739 67.2746C191.819 67.3856 191.929 67.4708 192.057 67.5194C192.185 67.5681 192.324 67.578 192.457 67.548C192.59 67.5181 192.712 67.4495 192.806 67.3509C192.901 67.2522 192.964 67.128 192.988 66.9936C193.013 66.8592 192.997 66.7206 192.943 66.5951C192.889 66.4697 192.799 66.3629 192.685 66.2882C192.57 66.2135 192.437 66.1741 192.3 66.175C192.113 66.1802 191.936 66.2587 191.807 66.3935C191.678 66.5282 191.607 66.7084 191.61 66.895Z" fill="#263238"/>
<path d="M195.395 66.355L195.165 70.515L192.995 69.775L195.395 66.355Z" fill="#F28F8F"/>
<path d="M214.39 116.64C214.324 116.64 214.26 116.614 214.213 116.567C214.166 116.52 214.14 116.456 214.14 116.39V37.75C214.14 37.6837 214.166 37.6201 214.213 37.5732C214.26 37.5263 214.324 37.5 214.39 37.5C214.456 37.5 214.52 37.5263 214.567 37.5732C214.614 37.6201 214.64 37.6837 214.64 37.75V116.39C214.64 116.456 214.614 116.52 214.567 116.567C214.52 116.614 214.456 116.64 214.39 116.64Z" fill="#37474F"/>
<path d="M212.5 44.595C212.5 43.795 214.165 41.595 214.5 41.595C214.835 41.595 216.32 43.75 216.32 44.595C216.305 44.7626 216.246 44.9233 216.149 45.0604C216.051 45.1976 215.919 45.3062 215.765 45.375C215.349 45.587 214.889 45.6975 214.423 45.6975C213.956 45.6975 213.496 45.587 213.08 45.375C212.921 45.3101 212.784 45.2032 212.681 45.0658C212.579 44.9283 212.516 44.7655 212.5 44.595Z" fill="#BA68C8"/>
<path opacity="0.1" d="M212.5 44.595C212.5 43.795 214.165 41.595 214.5 41.595C214.835 41.595 216.32 43.75 216.32 44.595C216.305 44.7626 216.246 44.9233 216.149 45.0604C216.051 45.1976 215.919 45.3062 215.765 45.375C215.349 45.587 214.889 45.6975 214.423 45.6975C213.956 45.6975 213.496 45.587 213.08 45.375C212.921 45.3101 212.784 45.2032 212.681 45.0658C212.579 44.9283 212.516 44.7655 212.5 44.595Z" fill="black"/>
<path d="M203.33 27.145C203.33 33.295 208.155 41.065 214.47 42.535C220.82 40.76 225.61 33.295 225.61 27.145C225.61 20.995 221.65 15.245 214.47 15.245C207.29 15.245 203.33 21 203.33 27.145Z" fill="#BA68C8"/>
<path opacity="0.05" d="M225.13 30.36C225.13 30.36 223.5 36.26 216.165 36.735C209.125 37.19 203.4 29.46 203.615 24.34C203.424 25.2627 203.329 26.2027 203.33 27.145C203.33 33.295 208.155 41.065 214.47 42.535C219.735 41.065 223.92 35.685 225.205 30.385L225.13 30.36Z" fill="black"/>
<path d="M221.5 109.465C222.83 109.085 224.195 105.11 224.095 102.555C223.995 100 220.565 88.98 220.095 86.855C219.56 84.515 219.595 82.735 219.12 81.52C218.42 79.73 216.12 78.745 216.12 78.745C216.12 78.745 213.12 77.305 212.04 77.09C210.96 76.875 210.54 77.59 210.66 78.155C210.78 78.72 211.16 80.155 211.26 80.935C211.331 81.9334 211.623 82.9035 212.115 83.775C212.68 84.68 214.985 86.845 215.075 88.05C215.165 89.255 215.83 95.8 216.21 100.55C216.525 104.44 216.915 106.05 217.76 107.08C218.605 108.11 220.5 109.76 221.5 109.465Z" fill="#FFA8A7"/>
<path d="M92.3851 182.485C106.499 182.485 117.94 177.032 117.94 170.305C117.94 163.578 106.499 158.125 92.3851 158.125C78.2714 158.125 66.8301 163.578 66.8301 170.305C66.8301 177.032 78.2714 182.485 92.3851 182.485Z" fill="#E0E0E0"/>
<path d="M146.685 186.19C160.799 186.19 172.24 180.737 172.24 174.01C172.24 167.283 160.799 161.83 146.685 161.83C132.571 161.83 121.13 167.283 121.13 174.01C121.13 180.737 132.571 186.19 146.685 186.19Z" fill="#E0E0E0"/>
<path d="M98.8151 69.85C100.14 69.66 101.26 69.85 103.575 73.01C105.645 75.84 109.77 80.59 109.77 80.59C109.77 80.59 113.5 70.815 113.39 69.5C113.28 68.185 112.455 67.375 111.915 64.955C111.375 62.535 111.22 62.075 110.815 61.37C110.41 60.665 111.815 60.495 112.38 61.37C112.945 62.245 113.015 63.48 113.41 63.26C113.805 63.04 114.075 60.38 113.74 58.47C113.405 56.56 114.275 56.13 114.67 56.74C114.899 57.0811 115.06 57.463 115.145 57.865C115.554 57.7815 115.977 57.8079 116.373 57.9414C116.768 58.0749 117.121 58.3108 117.395 58.625C118.395 59.715 119.225 61.39 119.22 64.225C119.215 67.06 117.905 68.575 117.72 69.855C117.535 71.135 115.22 83 113.58 87.01C112.55 89.51 111.125 90.27 109.385 88.805C107.04 86.83 100.605 78.92 100.605 78.92L98.8151 69.85Z" fill="#FFA8A7"/>
<path d="M98.8151 69.85C100.01 69.495 101.315 69.775 102.525 71.225C103.735 72.675 108.165 78.285 108.165 78.285C108.165 78.285 108.035 81.155 104.33 83.815L100.105 79.265L98.8151 69.85Z" fill="#BA68C8"/>
<path d="M105.075 162.43L105.035 161.765C105.35 162.53 106.77 165.83 108.725 167.405C110.275 168.66 112.38 170.095 112.98 171.56C113.58 173.025 110.31 173.81 108.92 173.645C107.305 173.46 105.18 172.675 103.97 171.36C103.12 170.435 102.55 169.315 101.94 168.585C101.33 167.855 99.975 167.085 99.615 166.21C99.42 165.735 99.555 164.655 99.735 163.745C99.915 162.835 100.185 161.905 100.47 161.965C100.458 162.161 100.435 162.357 100.4 162.55C101.095 163.034 101.935 163.264 102.78 163.2C103.465 163.185 105.115 162.95 105.075 162.43Z" fill="#263238"/>
<path d="M110.13 168.5C109.63 168.12 109.165 167.75 108.725 167.395C107.36 166.29 106.255 164.345 105.605 163.015V162.99C105.108 161.913 104.891 160.728 104.975 159.545L105.035 157.97L100.035 158.07L100.4 162.54V162.655H100.425C100.71 163.61 103.005 166.065 104.325 167.655C105.205 168.73 106.825 170.075 108.71 170.21C110.5 170.38 111.35 169.77 110.13 168.5Z" fill="#FFA8A7"/>
<path d="M77.16 163C76.92 162.86 76.525 163.675 76.11 164.295C75.6646 165.066 75.4526 165.951 75.5 166.84C75.6106 167.842 75.5583 168.855 75.345 169.84C75.065 171.5 74.58 173.405 76.25 174.935C77.685 176.245 80.885 176.855 81.905 175.935C82.1123 175.766 82.2769 175.551 82.3855 175.307C82.494 175.063 82.5436 174.797 82.53 174.53C82.3254 173.805 82.0438 173.105 81.69 172.44C81.2955 171.686 80.9416 170.912 80.63 170.12L77.16 163Z" fill="#263238"/>
<path d="M81.6699 160.19C81.4499 160.005 80.9749 166.145 80.8399 167.605C80.7049 169.065 80.9599 169.83 81.1999 171.385C81.3195 171.752 81.2926 172.152 81.125 172.5C80.9982 172.661 80.8353 172.791 80.6495 172.877C80.4636 172.964 80.26 173.006 80.055 173C78.995 173 78.1549 172.61 77.2649 171.605C76.8249 171.105 76.795 169.78 76.82 169.3C76.8924 168.495 76.9075 167.687 76.8649 166.88C76.7849 166.025 76.5349 165.02 76.6449 164.38C76.739 163.884 76.9076 163.405 77.1449 162.96C77.5499 162.035 77.82 159.505 77.82 159.505L81.6699 160.19Z" fill="#FFA8A7"/>
<path d="M83.765 95.095C81.17 98.43 80.7 101.87 81.265 111.595C81.83 121.32 81.01 129.265 80.865 129.81C80.72 130.355 79.075 135.725 78.3 139.34C77.395 143.575 77.27 161.01 77.27 161.01C77.27 161.01 79.115 162.01 81.965 161.33C81.965 161.33 88.845 134.085 89.575 131.89C90.305 129.695 95.83 107.055 95.83 107.055L95.125 94.02L83.765 95.095Z" fill="#37474F"/>
<path d="M103.61 106.305C103.215 101.805 102.25 94.01 102.25 94.01L90.7501 93.335C88.8851 96.24 89.6951 101.07 90.2051 105.435L96.7851 131.195C96.6501 132.43 95.5151 135.045 96.7851 141.695C98.2001 149.105 99.9351 158.9 99.9351 158.9C99.9351 158.9 102.635 160 105.115 158.955C105.115 158.955 106.065 135.495 105.46 129.09C104.795 122.135 103.88 109.385 103.61 106.305Z" fill="#37474F"/>
<path d="M93.8201 117.235L95.6951 107.785C97.3571 107.193 98.9352 106.388 100.39 105.39C99.4607 106.565 98.3521 107.585 97.1051 108.415L93.8201 117.235Z" fill="#263238"/>
<path d="M84.46 72.21C83.17 72.955 81.035 73.635 80.145 76.145C78.93 79.645 75.705 88.735 74.465 92H80.425L84.55 83.55C87.74 80.81 87.31 73.195 84.46 72.21Z" fill="#FFA8A7"/>
<path d="M101.5 86.705C101.785 89.33 102.845 99.04 102.845 99.04C94.17 103.665 83.415 100.6 81.77 98.695C83.27 93.785 84.865 90.99 86.09 89.695L84.55 83.55C84.55 83.55 88.185 79.225 84.46 72.21L89.295 70.62L95.915 70.045L98.815 69.85C99.85 70.82 101.48 74.295 102.54 77C103.22 78.745 103.955 81.535 101.5 86.705Z" fill="#F5F5F5"/>
<path d="M84.46 72.21C81.61 72.77 80.33 74.17 79.19 77.28C77.96 80.645 76.485 84.28 76.485 84.28C77.2835 85.4339 78.3978 86.3329 79.6943 86.8695C80.9909 87.406 82.4147 87.5572 83.795 87.305L85.64 82.16C85.64 82.16 88.115 77.62 84.46 72.21Z" fill="#BA68C8"/>
<path d="M85.335 86.64C85.41 86.94 87.44 89.64 88.435 90.26C89.43 90.88 86.675 91.76 86.285 93.335C85.5 96.5 90.405 100.565 96.5 101.145C89.605 102.275 83.04 100.145 81.785 98.695C83.285 93.785 84.88 90.99 86.105 89.695L85.335 86.64Z" fill="#E6E6E6"/>
<path d="M103.575 69.235H94.31C92.8206 69.2357 91.3457 68.9428 89.9696 68.3732C88.5934 67.8035 87.3431 66.9682 86.2899 65.9151C85.2368 64.8619 84.4015 63.6116 83.8318 62.2354C83.2622 60.8593 82.9693 59.3844 82.97 57.895C82.97 55.1633 84.0551 52.5435 85.9868 50.6118C87.9184 48.6802 90.5382 47.595 93.27 47.595C94.623 47.5944 95.9629 47.8603 97.2131 48.3776C98.4634 48.895 99.5994 49.6536 100.556 50.6101C101.513 51.5666 102.273 52.7023 102.79 53.9522C103.308 55.2022 103.575 56.542 103.575 57.895V69.235Z" fill="#263238"/>
<path d="M99.895 52.0801C100.985 52.7251 102.33 55.4601 102.195 61.2001C102.08 66.0601 100.505 67.2651 99.695 67.6101C98.885 67.9551 97.375 67.7451 95.895 67.4951V70.4151C95.803 71.0321 95.4704 71.5876 94.97 71.9601C93.76 72.7151 92.33 72.4301 91.525 72.1401C89.75 71.5001 89.4 70.6401 89.4 70.6401L89.43 63.9251C89.43 63.9251 88.56 64.7751 87.075 63.4801C85.855 62.4101 85.445 60.6101 86.395 59.6401C86.6424 59.4101 86.9409 59.2423 87.2659 59.1504C87.5909 59.0585 87.9331 59.0452 88.2642 59.1116C88.5953 59.1781 88.906 59.3223 89.1704 59.5324C89.4348 59.7425 89.6455 60.0125 89.785 60.3201C89.785 60.3201 90.655 60.3901 91.525 58.7701C91.525 58.7701 91.495 54.3801 92.475 53.8101C95.6 52.0001 97.81 52.0801 99.895 52.0801Z" fill="#FFA8A7"/>
<path d="M95.91 59.67C95.9161 59.7512 95.9061 59.8328 95.8804 59.9101C95.8547 59.9874 95.814 60.0588 95.7605 60.1202C95.707 60.1816 95.6418 60.2318 95.5688 60.2678C95.4958 60.3038 95.4163 60.325 95.335 60.33C95.2086 60.3419 95.0816 60.3156 94.9703 60.2546C94.859 60.1935 94.7685 60.1005 94.7106 59.9876C94.6527 59.8746 94.6299 59.7469 94.6453 59.6209C94.6607 59.4949 94.7135 59.3764 94.7968 59.2807C94.8802 59.185 94.9904 59.1164 95.1131 59.084C95.2358 59.0515 95.3654 59.0565 95.4853 59.0984C95.6051 59.1403 95.7096 59.2172 95.7853 59.3191C95.861 59.421 95.9045 59.5432 95.91 59.67Z" fill="#263238"/>
<g style="mix-blend-mode:multiply" opacity="0.5">
<path d="M96.93 64.1L98.35 64.55C98.3237 64.6446 98.2786 64.7329 98.2174 64.8097C98.1562 64.8864 98.0802 64.95 97.9938 64.9967C97.9075 65.0434 97.8126 65.0722 97.7149 65.0813C97.6171 65.0905 97.5186 65.0798 97.425 65.05C97.2368 64.9848 97.0807 64.8501 96.9887 64.6735C96.8966 64.4968 96.8756 64.2916 96.93 64.1Z" fill="#F28F8F"/>
</g>
<path d="M101.44 57.765L100.205 56.91C100.256 56.8263 100.324 56.7539 100.404 56.6975C100.485 56.641 100.576 56.6018 100.672 56.5821C100.768 56.5624 100.867 56.5627 100.963 56.583C101.059 56.6033 101.15 56.6431 101.23 56.7C101.396 56.8163 101.51 56.992 101.549 57.1904C101.588 57.3888 101.549 57.5946 101.44 57.765Z" fill="#263238"/>
<path d="M95.06 57.5L93.655 58.04C93.6146 57.9505 93.5931 57.8537 93.5919 57.7555C93.5906 57.6573 93.6095 57.5599 93.6475 57.4694C93.6855 57.3789 93.7417 57.2971 93.8127 57.2293C93.8837 57.1614 93.9679 57.1089 94.06 57.075C94.2494 57.0045 94.4587 57.0093 94.6447 57.0883C94.8307 57.1674 94.9793 57.3147 95.06 57.5Z" fill="#263238"/>
<path d="M101.105 59.535C101.107 59.6557 101.073 59.7743 101.008 59.876C100.943 59.9777 100.849 60.0579 100.739 60.1068C100.628 60.1556 100.506 60.1708 100.387 60.1505C100.268 60.1303 100.157 60.0754 100.069 59.9928C99.9813 59.9102 99.9195 59.8035 99.8917 59.686C99.8638 59.5685 99.8712 59.4454 99.9129 59.3321C99.9545 59.2187 100.029 59.1202 100.126 59.0487C100.223 58.9772 100.339 58.9359 100.46 58.93C100.625 58.9259 100.786 58.9871 100.907 59.1003C101.027 59.2135 101.099 59.3697 101.105 59.535Z" fill="#263238"/>
<g style="mix-blend-mode:multiply" opacity="0.5">
<path d="M98.17 59.1851L98.265 62.8651L100.205 62.2651L98.17 59.1851Z" fill="#F28F8F"/>
</g>
<g style="mix-blend-mode:multiply" opacity="0.5">
<path d="M95.915 67.5C94.35 67.295 91.13 66.375 90.63 65.1C90.8301 65.7453 91.2248 66.3129 91.76 66.725C92.72 67.55 95.915 68.475 95.915 68.475V67.5Z" fill="#F28F8F"/>
</g>
<path d="M91.78 48.145L91.545 45.445C91.7218 45.4184 91.9022 45.4282 92.0751 45.474C92.2479 45.5197 92.4096 45.6003 92.5501 45.7108C92.6906 45.8214 92.807 45.9595 92.8921 46.1167C92.9773 46.2739 93.0293 46.4469 93.045 46.625C93.0719 46.9928 92.955 47.3567 92.7191 47.6402C92.4832 47.9236 92.1466 48.1046 91.78 48.145Z" fill="#263238"/>
<path d="M91.635 48.415L89.45 46.815C89.5478 46.666 89.6749 46.5385 89.8235 46.4402C89.9721 46.3418 90.1392 46.2747 90.3145 46.2429C90.4899 46.2111 90.6699 46.2153 90.8436 46.2552C91.0173 46.2951 91.1811 46.3699 91.325 46.475C91.6157 46.6968 91.81 47.022 91.8677 47.3831C91.9254 47.7442 91.8421 48.1136 91.635 48.415Z" fill="#263238"/>
<path d="M89.8051 60.31V62.865C90.2665 62.865 90.7091 62.6817 91.0354 62.3554C91.3617 62.0291 91.5451 61.5865 91.5451 61.125V58.76L89.8051 60.31Z" fill="#263238"/>
<path d="M96.765 48.2C99.0591 48.2 101.259 49.1113 102.881 50.7335C104.504 52.3557 105.415 54.5559 105.415 56.85V57.97H101.185C100.232 57.9704 99.312 57.6256 98.5941 56.9996C97.8761 56.3736 97.4093 55.5087 97.28 54.565L97.125 57.97C96.3421 57.9705 95.5874 57.6777 95.0098 57.1491C94.4323 56.6206 94.0737 55.8949 94.005 55.115L93.955 54.555C93.8808 55.4844 93.4595 56.3518 92.7748 56.9846C92.0901 57.6174 91.1923 57.9692 90.26 57.97H89.88L89.45 51.86L96.765 48.2Z" fill="#263238"/>
<path d="M155.56 169.16V168.5C155.295 169.285 154.06 172.665 152.215 174.355C150.74 175.7 148.715 177.255 148.215 178.755C147.715 180.255 151.015 180.84 152.395 180.595C153.995 180.315 156.07 179.405 157.195 178.02C157.99 177.045 158.495 175.89 159.06 175.125C159.625 174.36 160.93 173.5 161.235 172.625C161.405 172.125 161.205 171.07 160.97 170.17C160.735 169.27 160.52 168.435 160.235 168.51V169.01C159.569 169.535 158.743 169.814 157.895 169.8C157.215 169.82 155.555 169.685 155.56 169.16Z" fill="#263238"/>
<path d="M150.88 175.53C151.34 175.12 151.8 174.725 152.215 174.34C153.515 173.16 154.5 171.155 155.07 169.785C155.395 169.005 155.565 168.17 155.57 167.325V164.66H160.245V169V169.115H160.22C159.995 170.085 157.85 172.675 156.63 174.36C155.815 175.49 154.26 176.925 152.405 177.175C150.635 177.42 149.74 176.865 150.88 175.53Z" fill="#B16668"/>
<path d="M137.315 164.55V163.88C137.055 164.665 135.815 168.045 133.975 169.735C132.5 171.08 130.475 172.635 129.975 174.135C129.475 175.635 132.775 176.22 134.155 175.975C135.755 175.69 137.825 174.785 138.955 173.4C139.745 172.425 140.25 171.27 140.82 170.505C141.39 169.74 142.69 168.88 142.995 168.005C143.165 167.505 142.965 166.45 142.73 165.55C142.51 164.725 142.275 163.815 141.995 163.89V164.39C141.329 164.915 140.503 165.194 139.655 165.18C138.97 165.21 137.31 165.075 137.315 164.55Z" fill="#263238"/>
<path d="M132.64 170.92C133.095 170.51 133.555 170.115 133.975 169.73C135.27 168.55 136.26 166.545 136.825 165.175C137.153 164.396 137.323 163.56 137.325 162.715V160.05H142V164.385V164.5H141.975C141.75 165.47 139.605 168.055 138.385 169.745C137.565 170.875 136.015 172.31 134.16 172.56C132.395 172.81 131.5 172.255 132.64 170.92Z" fill="#B16668"/>
<path d="M159.305 96.5C162.93 104.42 159.175 132.315 159.175 132.315C159.285 133.6 160.75 136.13 161.3 141.785C161.945 148.465 160.3 165.245 160.3 165.245C159.587 165.659 158.784 165.892 157.961 165.925C157.138 165.958 156.319 165.79 155.575 165.435C155.575 165.435 151.1 140.14 150.265 133.5C149.53 127.705 148.13 114.955 148.13 114.955L144.13 133.455C144.711 135.324 145.132 137.24 145.39 139.18C145.77 143.09 141.985 161.285 141.985 161.285C141.985 161.285 140.37 161.875 137.305 161.425C137.305 161.425 135.97 137.275 135.615 132.57C135.02 124.66 137.115 99.99 138.57 95.31L159.305 96.5Z" fill="#37474F"/>
<path d="M148.13 114.95L146.95 107.595C146.95 107.595 141.95 106.56 139.715 104.44C139.715 104.44 142.08 107.385 145.6 108.35L146.925 114L144.615 131.145L148.13 114.95Z" fill="#263238"/>
<path d="M145.69 68.755C144.563 68.5691 143.406 68.7018 142.35 69.1383C141.295 69.5747 140.382 70.2975 139.715 71.225C138.14 73.32 132.08 90.945 132.08 90.945H137.535L145 76.175L145.69 68.755Z" fill="#B16668"/>
<path d="M152.91 68.97C157.56 69.29 157.885 71.535 159.045 73.97C159.904 75.8635 159.983 78.0188 159.265 79.97L156.03 89.34C156.03 89.34 157.53 93.005 159.305 96.47C151.175 101.005 141.025 98.62 138.58 95.31C138.48 94.61 139.08 89.12 139.495 85.535C138.06 81.94 137.685 79.665 138.29 77.29C139.41 72.885 143.76 68.59 145.69 68.745L152.91 68.97Z" fill="#F5F5F5"/>
<path d="M150.83 97.36C151.468 97.2136 152.071 96.941 152.602 96.5583C153.134 96.1755 153.583 95.6903 153.924 95.1312C154.265 94.5721 154.491 93.9504 154.588 93.3028C154.685 92.6551 154.652 91.9946 154.49 91.36C154.469 91.2727 154.441 91.1873 154.405 91.105C154.294 90.7642 154.071 90.4708 153.773 90.2721C153.474 90.0734 153.117 89.9811 152.76 90.01C153.282 89.6657 153.73 89.2208 154.079 88.7015C154.428 88.1822 154.669 87.5987 154.79 86.985L155.79 82.03C155.79 82.03 153.955 76.21 154.14 74.215L158.805 74.485L159.41 74.905C159.906 76.5629 159.858 78.3359 159.275 79.965L156.04 89.335C156.04 89.335 157.54 93 159.315 96.465C156.67 97.8875 153.751 98.7263 150.755 98.9246C147.758 99.123 144.754 98.6764 141.945 97.615C144.896 98.091 147.911 98.0045 150.83 97.36Z" fill="#E6E6E6"/>
<path d="M170.025 92.205C170.025 92.205 165.41 83.125 162.36 76.175C160.16 71.175 159.665 70.025 156.16 69.48L154.925 69.29C153.265 74.745 154.425 77.22 156.595 80.955L164.19 95.355C165.91 95 170.06 92.725 170.025 92.205Z" fill="#B16668"/>
<path d="M150.98 65.1151H147.685C145.36 65.1151 143.131 64.1916 141.487 62.5478C139.843 60.9041 138.92 58.6747 138.92 56.35V54.8801C138.92 52.5422 139.849 50.3 141.502 48.6469C143.155 46.9938 145.397 46.0651 147.735 46.0651H150.905C153.243 46.0651 155.485 46.9938 157.138 48.6469C158.791 50.3 159.72 52.5422 159.72 54.8801V56.35C159.72 58.6747 158.797 60.9041 157.153 62.5478C155.509 64.1916 153.28 65.1151 150.955 65.1151H150.98Z" fill="#263238"/>
<path d="M142.36 50.27C141.26 50.92 139.9 53.685 140.035 59.48C140.15 64.39 141.74 65.6 142.535 65.95C143.33 66.3 144.875 66.085 146.375 65.84V68.785C146.375 68.785 144.3 71.19 144.435 72.54C144.57 73.89 147.435 74.21 149.36 72.89C150.617 71.9865 151.695 70.8574 152.54 69.56V62.44C152.54 62.44 153.54 63.79 155.205 62.69C156.87 61.59 156.925 58.875 155.965 57.895C155.005 56.915 152.925 57.23 152.54 58.58C152.54 58.58 150.15 58.665 146.97 56.915C145.732 56.2489 144.67 55.2998 143.869 54.145C143.068 52.9902 142.551 51.6625 142.36 50.27Z" fill="#B16668"/>
<path d="M146.065 58.245C146.063 58.3668 146.097 58.4863 146.163 58.5888C146.229 58.6913 146.323 58.7722 146.434 58.8214C146.546 58.8706 146.669 58.8859 146.789 58.8655C146.909 58.845 147.02 58.7897 147.109 58.7064C147.198 58.6231 147.26 58.5155 147.288 58.397C147.316 58.2786 147.309 58.1545 147.267 58.0402C147.225 57.926 147.15 57.8266 147.052 57.7546C146.954 57.6825 146.837 57.6409 146.715 57.635C146.632 57.6324 146.55 57.646 146.472 57.6753C146.395 57.7045 146.324 57.7487 146.264 57.8053C146.203 57.862 146.155 57.93 146.121 58.0054C146.086 58.0809 146.068 58.1623 146.065 58.245Z" fill="#263238"/>
<path d="M145.35 62.405L143.92 62.865C143.947 62.9598 143.993 63.0482 144.054 63.125C144.116 63.2018 144.192 63.2654 144.279 63.312C144.366 63.3586 144.461 63.3874 144.559 63.3965C144.657 63.4056 144.756 63.3949 144.85 63.365C145.039 63.2977 145.196 63.1613 145.289 62.9833C145.381 62.8052 145.403 62.5986 145.35 62.405Z" fill="#9A4A4D"/>
<path d="M141 56.35L142.25 55.48C142.197 55.3963 142.127 55.3242 142.046 55.2681C141.964 55.2119 141.872 55.1728 141.775 55.1532C141.678 55.1336 141.578 55.1338 141.48 55.1539C141.383 55.174 141.291 55.2135 141.21 55.27C141.043 55.3882 140.927 55.5666 140.888 55.7678C140.849 55.9691 140.889 56.1776 141 56.35Z" fill="#263238"/>
<path d="M141.29 57.8C141.289 57.9215 141.324 58.0406 141.39 58.1425C141.457 58.2443 141.551 58.3245 141.663 58.3729C141.774 58.4214 141.898 58.436 142.017 58.4149C142.137 58.3939 142.248 58.3382 142.336 58.2547C142.424 58.1711 142.486 58.0635 142.514 57.9452C142.541 57.8268 142.534 57.703 142.491 57.589C142.449 57.475 142.374 57.376 142.276 57.3042C142.178 57.2323 142.061 57.1909 141.94 57.185C141.773 57.1823 141.611 57.2451 141.49 57.36C141.368 57.475 141.297 57.6329 141.29 57.8Z" fill="#263238"/>
<path d="M144.31 57.445L144.21 61.16L142.255 60.555L144.31 57.445Z" fill="#9A4A4D"/>
<path d="M146.38 65.84C147.955 65.63 151.205 64.695 151.71 63.415C151.51 64.0642 151.113 64.6353 150.575 65.05C149.605 65.885 146.38 66.82 146.38 66.82V65.84Z" fill="#9A4A4D"/>
<path d="M158.45 47.18C156.42 48.025 156.875 49.765 157.725 51.795C158.575 53.825 159.5 55.37 161.5 54.5C162.037 54.339 162.534 54.0668 162.959 53.7013C163.384 53.3358 163.727 52.885 163.967 52.3783C164.207 51.8715 164.337 51.32 164.35 50.7596C164.363 50.1992 164.257 49.6423 164.041 49.1252C163.825 48.608 163.502 48.1421 163.094 47.7577C162.686 47.3732 162.202 47.0788 161.673 46.8935C161.144 46.7082 160.582 46.6362 160.023 46.6821C159.465 46.728 158.922 46.8908 158.43 47.16L158.45 47.18Z" fill="#263238"/>
<path d="M156.665 49L155.955 45.615C156.173 45.5603 156.399 45.5497 156.62 45.5841C156.842 45.6184 157.055 45.6969 157.245 45.8148C157.436 45.9328 157.601 46.0879 157.731 46.2709C157.86 46.4538 157.952 46.661 158 46.88C158.094 47.3374 158.007 47.8133 157.759 48.2083C157.51 48.6034 157.118 48.887 156.665 49Z" fill="#263238"/>
<path d="M173.325 90.945H67.35V115.21H173.325V90.945Z" fill="#BA68C8"/>
<path d="M81.765 108.675C81.6733 108.59 81.6075 108.481 81.575 108.36L79 100C78.991 99.9487 78.991 99.8963 79 99.845C79 99.68 79.1 99.6 79.305 99.6H80.775C80.8871 99.5882 80.9998 99.6147 81.095 99.675C81.1701 99.7445 81.218 99.8384 81.23 99.94L82.89 105.775L84.775 100.775C84.8111 100.671 84.871 100.577 84.95 100.5C85.0372 100.434 85.1462 100.404 85.255 100.415H86.075C86.179 100.406 86.2829 100.433 86.37 100.49C86.4443 100.572 86.4991 100.669 86.53 100.775L88.4 105.775L90.075 99.94C90.0999 99.8428 90.146 99.7523 90.21 99.675C90.3066 99.6135 90.4213 99.5871 90.535 99.6H92C92.205 99.6 92.305 99.68 92.305 99.845C92.3112 99.8965 92.3112 99.9485 92.305 100L89.69 108.35C89.6632 108.474 89.6006 108.587 89.51 108.675C89.4085 108.733 89.2917 108.759 89.175 108.75H88C87.8915 108.758 87.7836 108.728 87.695 108.665C87.6119 108.573 87.5473 108.466 87.505 108.35L85.6 103.22L83.69 108.35C83.6486 108.469 83.5801 108.577 83.49 108.665C83.3975 108.728 83.2866 108.758 83.175 108.75H82.09C81.9768 108.756 81.8642 108.73 81.765 108.675Z" fill="white"/>
<path d="M95.17 108.54C94.3902 108.22 93.7234 107.676 93.255 106.975C92.7536 106.188 92.5042 105.267 92.54 104.335C92.54 102.695 92.9783 101.45 93.855 100.6C94.73 99.75 95.975 99.32 97.59 99.32C99.205 99.32 100.405 99.735 101.225 100.56C102.045 101.385 102.455 102.56 102.455 104.145C102.455 104.59 102.25 104.815 101.845 104.815H94.845C94.826 105.184 94.8961 105.553 95.0492 105.89C95.2023 106.226 95.4341 106.521 95.725 106.75C96.441 107.239 97.2993 107.477 98.165 107.425C99.1113 107.439 100.044 107.203 100.87 106.74C100.933 106.698 101.005 106.67 101.08 106.66C101.17 106.66 101.24 106.72 101.29 106.835L101.75 107.655C101.783 107.72 101.802 107.792 101.805 107.865C101.8 107.917 101.781 107.966 101.751 108.009C101.722 108.052 101.682 108.087 101.635 108.11C101.111 108.43 100.541 108.668 99.945 108.815C99.2623 108.978 98.5619 109.055 97.86 109.045C96.9386 109.058 96.0239 108.886 95.17 108.54ZM100.24 103.4C100.259 103.064 100.211 102.728 100.098 102.412C99.9857 102.095 99.8113 101.804 99.585 101.555C99.3179 101.316 99.0053 101.134 98.6659 101.018C98.3265 100.903 97.9674 100.858 97.61 100.885C96.8634 100.836 96.1274 101.082 95.56 101.57C95.3202 101.809 95.1328 102.095 95.0097 102.41C94.8866 102.725 94.8305 103.062 94.845 103.4H100.24Z" fill="white"/>
<path d="M104.5 108.59C104.384 108.45 104.325 108.271 104.335 108.09V96.5C104.319 96.3071 104.378 96.1156 104.5 95.965C104.573 95.9009 104.659 95.8527 104.752 95.8234C104.845 95.7942 104.943 95.7845 105.04 95.795H106.04C106.24 95.776 106.44 95.8371 106.595 95.965C106.657 96.0386 106.704 96.1237 106.733 96.2155C106.763 96.3073 106.773 96.404 106.765 96.5V108.075C106.776 108.256 106.719 108.434 106.605 108.575C106.446 108.703 106.243 108.765 106.04 108.745H105.04C104.944 108.756 104.847 108.749 104.754 108.722C104.662 108.695 104.575 108.65 104.5 108.59Z" fill="white"/>
<path d="M110.05 107.795C109.564 107.341 109.184 106.785 108.939 106.167C108.693 105.549 108.588 104.884 108.63 104.22C108.611 103.325 108.836 102.442 109.28 101.665C109.719 100.923 110.363 100.324 111.135 99.94C112.018 99.512 112.989 99.2995 113.97 99.32C114.657 99.3084 115.343 99.3857 116.01 99.55C116.57 99.7034 117.099 99.9557 117.57 100.295C117.617 100.318 117.658 100.352 117.689 100.395C117.719 100.438 117.739 100.488 117.745 100.54C117.737 100.637 117.704 100.73 117.65 100.81L117.15 101.705C117.07 101.83 117 101.895 116.94 101.895C116.841 101.885 116.747 101.844 116.67 101.78C116.303 101.553 115.911 101.372 115.5 101.24C115.051 101.107 114.583 101.045 114.115 101.055C113.702 101.034 113.288 101.098 112.901 101.245C112.514 101.391 112.161 101.616 111.865 101.905C111.583 102.218 111.365 102.583 111.224 102.981C111.083 103.378 111.023 103.799 111.045 104.22C111.013 104.642 111.07 105.067 111.211 105.466C111.352 105.866 111.575 106.231 111.865 106.54C112.538 107.097 113.399 107.373 114.27 107.31C115.173 107.337 116.06 107.076 116.805 106.565C116.879 106.513 116.965 106.48 117.055 106.47C117.13 106.47 117.205 106.535 117.28 106.66L117.835 107.595C117.883 107.655 117.909 107.729 117.91 107.805C117.91 107.895 117.845 107.985 117.72 108.075C117.216 108.404 116.662 108.65 116.08 108.805C115.407 108.976 114.714 109.056 114.02 109.045C112.32 109.045 110.997 108.628 110.05 107.795Z" fill="white"/>
<path d="M120.745 107.74C119.878 106.759 119.4 105.494 119.4 104.185C119.4 102.876 119.878 101.611 120.745 100.63C121.64 99.76 122.915 99.32 124.57 99.32C126.225 99.32 127.5 99.76 128.4 100.63C129.273 101.608 129.755 102.874 129.755 104.185C129.755 105.496 129.273 106.762 128.4 107.74C127.5 108.61 126.22 109.045 124.57 109.045C122.92 109.045 121.64 108.61 120.745 107.74ZM126.625 106.47C127.141 105.825 127.395 105.009 127.335 104.185C127.395 103.369 127.141 102.561 126.625 101.925C126.058 101.425 125.328 101.15 124.573 101.15C123.817 101.15 123.087 101.425 122.52 101.925C122.001 102.559 121.745 103.368 121.805 104.185C121.747 105.006 122.003 105.819 122.52 106.46C123.083 106.969 123.814 107.25 124.573 107.25C125.331 107.25 126.062 106.969 126.625 106.46V106.47Z" fill="white"/>
<path d="M131.795 108.59C131.674 108.452 131.611 108.273 131.62 108.09V100.14C131.607 99.9977 131.642 99.8551 131.72 99.735C131.78 99.66 131.915 99.625 132.12 99.625H133.12C133.229 99.6141 133.338 99.6444 133.425 99.71C133.497 99.7919 133.537 99.8963 133.54 100.005L133.595 100.805C133.937 100.358 134.37 99.9883 134.865 99.72C135.393 99.4522 135.979 99.3199 136.57 99.335C137.082 99.3227 137.587 99.4525 138.03 99.71C138.447 99.9617 138.766 100.348 138.935 100.805C139.276 100.325 139.732 99.9386 140.262 99.6817C140.791 99.4247 141.377 99.3055 141.965 99.335C142.36 99.3158 142.754 99.3787 143.124 99.5199C143.493 99.661 143.829 99.8773 144.11 100.155C144.682 100.834 144.965 101.71 144.9 102.595V108.095C144.909 108.276 144.852 108.453 144.74 108.595C144.581 108.724 144.378 108.785 144.175 108.765H143.335C143.137 108.781 142.94 108.72 142.785 108.595C142.666 108.457 142.605 108.277 142.615 108.095V102.715C142.658 102.262 142.524 101.811 142.24 101.455C142.089 101.32 141.913 101.216 141.721 101.151C141.53 101.086 141.327 101.06 141.125 101.075C140.891 101.065 140.657 101.104 140.439 101.19C140.221 101.276 140.024 101.407 139.86 101.575C139.518 101.955 139.338 102.454 139.36 102.965V108.06C139.37 108.242 139.309 108.422 139.19 108.56C139.034 108.686 138.835 108.746 138.635 108.73H137.855C137.656 108.748 137.459 108.687 137.305 108.56C137.184 108.422 137.121 108.243 137.13 108.06V102.62C137.166 102.203 137.049 101.787 136.8 101.45C136.66 101.316 136.493 101.213 136.311 101.148C136.128 101.083 135.933 101.058 135.74 101.075C135.492 101.066 135.244 101.11 135.014 101.204C134.784 101.298 134.576 101.44 134.405 101.62C134.057 102.009 133.877 102.519 133.905 103.04V108.075C133.914 108.256 133.857 108.433 133.745 108.575C133.586 108.703 133.383 108.765 133.18 108.745H132.34C132.145 108.765 131.95 108.709 131.795 108.59Z" fill="white"/>
<path d="M149.315 108.54C148.539 108.227 147.872 107.691 147.4 107C146.899 106.213 146.649 105.292 146.685 104.36C146.685 102.72 147.123 101.475 148 100.625C148.875 99.775 150.12 99.345 151.735 99.345C153.35 99.345 154.55 99.76 155.37 100.585C156.19 101.41 156.6 102.585 156.6 104.17C156.6 104.615 156.395 104.84 155.99 104.84H149C148.981 105.209 149.051 105.578 149.204 105.915C149.357 106.251 149.589 106.547 149.88 106.775C150.596 107.265 151.454 107.503 152.32 107.45C153.266 107.463 154.199 107.227 155.025 106.765C155.088 106.723 155.16 106.695 155.235 106.685C155.325 106.685 155.395 106.745 155.445 106.86L155.905 107.68C155.939 107.745 155.957 107.817 155.96 107.89C155.955 107.942 155.936 107.991 155.906 108.034C155.877 108.077 155.837 108.112 155.79 108.135C155.266 108.455 154.696 108.693 154.1 108.84C153.417 109.003 152.717 109.08 152.015 109.07C151.089 109.077 150.17 108.896 149.315 108.54ZM154.385 103.4C154.404 103.064 154.356 102.728 154.243 102.412C154.131 102.095 153.956 101.804 153.73 101.555C153.463 101.316 153.15 101.134 152.811 101.019C152.471 100.904 152.112 100.858 151.755 100.885C151.008 100.835 150.272 101.081 149.705 101.57C149.467 101.81 149.282 102.096 149.16 102.411C149.039 102.726 148.984 103.063 149 103.4H154.385Z" fill="white"/>
<path d="M158.085 108V107.595C158.085 107.065 158.46 106.795 159.21 106.795H159.71C160.46 106.795 160.835 107.065 160.835 107.595V108C160.835 108.52 160.46 108.78 159.71 108.78H159.21C158.46 108.767 158.085 108.507 158.085 108ZM158.495 105C158.386 104.848 158.335 104.662 158.35 104.475L158.24 96.5001C158.223 96.3078 158.28 96.1164 158.4 95.965C158.475 95.9013 158.561 95.8534 158.655 95.8241C158.749 95.7949 158.847 95.785 158.945 95.7951H160C160.098 95.785 160.196 95.7949 160.29 95.8241C160.384 95.8534 160.47 95.9013 160.545 95.965C160.665 96.1164 160.722 96.3078 160.705 96.5001L160.575 104.47C160.59 104.657 160.539 104.843 160.43 104.995C160.291 105.112 160.111 105.169 159.93 105.155H158.995C158.906 105.168 158.816 105.161 158.73 105.134C158.644 105.107 158.566 105.061 158.5 105H158.495Z" fill="white"/>
<path d="M67.35 95.325C67.04 96.19 66.35 96.6 65.85 97.46C65.35 98.32 65.14 100.89 65.705 101.96C66.1358 102.711 66.741 103.347 67.4694 103.814C68.1978 104.281 69.0281 104.566 69.89 104.645C70.6131 104.675 71.327 104.475 71.93 104.075C72.2109 103.887 72.4592 103.653 72.665 103.385C72.853 103.097 72.9947 102.782 73.085 102.45C73.0922 102.424 73.1059 102.4 73.125 102.38C73.1521 102.363 73.183 102.352 73.215 102.35C73.4341 102.318 73.64 102.227 73.81 102.085C73.8947 102.014 73.9628 101.925 74.0095 101.825C74.0561 101.725 74.0802 101.616 74.08 101.505C74.0633 101.364 74.0133 101.23 73.9342 101.112C73.8551 100.995 73.7491 100.898 73.625 100.83C73.3724 100.7 73.1056 100.599 72.83 100.53C72.165 100.315 71.55 99.98 70.9 99.735C69.5828 99.2665 68.3736 98.5369 67.345 97.59L67.35 95.325Z" fill="#FFA8A7"/>
<path d="M173.33 96.105C173.64 96.98 174.33 97.395 174.83 98.27C175.33 99.145 175.55 101.77 174.98 102.835C174.543 103.598 173.928 104.243 173.188 104.718C172.449 105.192 171.605 105.481 170.73 105.56C170.035 105.608 169.342 105.43 168.757 105.051C168.172 104.672 167.726 104.114 167.485 103.46C167.03 101.885 167.815 101.29 169.705 100.575C171.043 100.101 172.271 99.3616 173.315 98.4L173.33 96.105Z" fill="#B16668"/>
<path d="M127 88.835C129.8 89.29 130.605 90.945 130.605 90.945H128.315C128.315 90.945 128.025 91.715 128.815 94.6C129.085 95.6 127.59 95.64 127.545 95.26C127.275 95.88 125.305 96.76 123.835 95.76C122.485 94.865 121.885 93.495 122.185 90.93C122.68 88.075 126.5 88.755 127 88.835Z" fill="#B16668"/>
</svg>
